%TF.GenerationSoftware,KiCad,Pcbnew,6.0.6-3a73a75311~116~ubuntu20.04.1*%
%TF.CreationDate,2022-07-11T16:37:52-07:00*%
%TF.ProjectId,zx81-kbd,7a783831-2d6b-4626-942e-6b696361645f,rev?*%
%TF.SameCoordinates,Original*%
%TF.FileFunction,Legend,Top*%
%TF.FilePolarity,Positive*%
%FSLAX46Y46*%
G04 Gerber Fmt 4.6, Leading zero omitted, Abs format (unit mm)*
G04 Created by KiCad (PCBNEW 6.0.6-3a73a75311~116~ubuntu20.04.1) date 2022-07-11 16:37:52*
%MOMM*%
%LPD*%
G01*
G04 APERTURE LIST*
%ADD10C,0.500000*%
%ADD11C,0.150000*%
%ADD12C,0.120000*%
G04 APERTURE END LIST*
D10*
X38071428Y-35857142D02*
X40071428Y-35857142D01*
X38071428Y-38857142D01*
X40071428Y-38857142D01*
X40928571Y-35857142D02*
X42928571Y-38857142D01*
X42928571Y-35857142D02*
X40928571Y-38857142D01*
X44499999Y-37142857D02*
X44214285Y-37000000D01*
X44071428Y-36857142D01*
X43928571Y-36571428D01*
X43928571Y-36428571D01*
X44071428Y-36142857D01*
X44214285Y-36000000D01*
X44499999Y-35857142D01*
X45071428Y-35857142D01*
X45357142Y-36000000D01*
X45499999Y-36142857D01*
X45642857Y-36428571D01*
X45642857Y-36571428D01*
X45499999Y-36857142D01*
X45357142Y-37000000D01*
X45071428Y-37142857D01*
X44499999Y-37142857D01*
X44214285Y-37285714D01*
X44071428Y-37428571D01*
X43928571Y-37714285D01*
X43928571Y-38285714D01*
X44071428Y-38571428D01*
X44214285Y-38714285D01*
X44499999Y-38857142D01*
X45071428Y-38857142D01*
X45357142Y-38714285D01*
X45499999Y-38571428D01*
X45642857Y-38285714D01*
X45642857Y-37714285D01*
X45499999Y-37428571D01*
X45357142Y-37285714D01*
X45071428Y-37142857D01*
X48499999Y-38857142D02*
X46785714Y-38857142D01*
X47642857Y-38857142D02*
X47642857Y-35857142D01*
X47357142Y-36285714D01*
X47071428Y-36571428D01*
X46785714Y-36714285D01*
X49785714Y-37714285D02*
X52071428Y-37714285D01*
X50928571Y-38857142D02*
X50928571Y-36571428D01*
X53214285Y-35857142D02*
X55071428Y-35857142D01*
X54071428Y-37000000D01*
X54499999Y-37000000D01*
X54785714Y-37142857D01*
X54928571Y-37285714D01*
X55071428Y-37571428D01*
X55071428Y-38285714D01*
X54928571Y-38571428D01*
X54785714Y-38714285D01*
X54499999Y-38857142D01*
X53642857Y-38857142D01*
X53357142Y-38714285D01*
X53214285Y-38571428D01*
X56785714Y-37142857D02*
X56499999Y-37000000D01*
X56357142Y-36857142D01*
X56214285Y-36571428D01*
X56214285Y-36428571D01*
X56357142Y-36142857D01*
X56499999Y-36000000D01*
X56785714Y-35857142D01*
X57357142Y-35857142D01*
X57642857Y-36000000D01*
X57785714Y-36142857D01*
X57928571Y-36428571D01*
X57928571Y-36571428D01*
X57785714Y-36857142D01*
X57642857Y-37000000D01*
X57357142Y-37142857D01*
X56785714Y-37142857D01*
X56499999Y-37285714D01*
X56357142Y-37428571D01*
X56214285Y-37714285D01*
X56214285Y-38285714D01*
X56357142Y-38571428D01*
X56499999Y-38714285D01*
X56785714Y-38857142D01*
X57357142Y-38857142D01*
X57642857Y-38714285D01*
X57785714Y-38571428D01*
X57928571Y-38285714D01*
X57928571Y-37714285D01*
X57785714Y-37428571D01*
X57642857Y-37285714D01*
X57357142Y-37142857D01*
X61499999Y-38857142D02*
X61499999Y-35857142D01*
X62499999Y-38000000D01*
X63499999Y-35857142D01*
X63499999Y-38857142D01*
X66071428Y-38714285D02*
X65785714Y-38857142D01*
X65214285Y-38857142D01*
X64928571Y-38714285D01*
X64785714Y-38428571D01*
X64785714Y-37285714D01*
X64928571Y-37000000D01*
X65214285Y-36857142D01*
X65785714Y-36857142D01*
X66071428Y-37000000D01*
X66214285Y-37285714D01*
X66214285Y-37571428D01*
X64785714Y-37857142D01*
X68785714Y-38714285D02*
X68499999Y-38857142D01*
X67928571Y-38857142D01*
X67642857Y-38714285D01*
X67499999Y-38571428D01*
X67357142Y-38285714D01*
X67357142Y-37428571D01*
X67499999Y-37142857D01*
X67642857Y-37000000D01*
X67928571Y-36857142D01*
X68499999Y-36857142D01*
X68785714Y-37000000D01*
X70071428Y-38857142D02*
X70071428Y-35857142D01*
X71357142Y-38857142D02*
X71357142Y-37285714D01*
X71214285Y-37000000D01*
X70928571Y-36857142D01*
X70499999Y-36857142D01*
X70214285Y-37000000D01*
X70071428Y-37142857D01*
X74071428Y-38857142D02*
X74071428Y-37285714D01*
X73928571Y-37000000D01*
X73642857Y-36857142D01*
X73071428Y-36857142D01*
X72785714Y-37000000D01*
X74071428Y-38714285D02*
X73785714Y-38857142D01*
X73071428Y-38857142D01*
X72785714Y-38714285D01*
X72642857Y-38428571D01*
X72642857Y-38142857D01*
X72785714Y-37857142D01*
X73071428Y-37714285D01*
X73785714Y-37714285D01*
X74071428Y-37571428D01*
X75499999Y-36857142D02*
X75499999Y-38857142D01*
X75499999Y-37142857D02*
X75642857Y-37000000D01*
X75928571Y-36857142D01*
X76357142Y-36857142D01*
X76642857Y-37000000D01*
X76785714Y-37285714D01*
X76785714Y-38857142D01*
X78214285Y-38857142D02*
X78214285Y-36857142D01*
X78214285Y-35857142D02*
X78071428Y-36000000D01*
X78214285Y-36142857D01*
X78357142Y-36000000D01*
X78214285Y-35857142D01*
X78214285Y-36142857D01*
X80928571Y-38714285D02*
X80642857Y-38857142D01*
X80071428Y-38857142D01*
X79785714Y-38714285D01*
X79642857Y-38571428D01*
X79499999Y-38285714D01*
X79499999Y-37428571D01*
X79642857Y-37142857D01*
X79785714Y-37000000D01*
X80071428Y-36857142D01*
X80642857Y-36857142D01*
X80928571Y-37000000D01*
X83499999Y-38857142D02*
X83499999Y-37285714D01*
X83357142Y-37000000D01*
X83071428Y-36857142D01*
X82499999Y-36857142D01*
X82214285Y-37000000D01*
X83499999Y-38714285D02*
X83214285Y-38857142D01*
X82499999Y-38857142D01*
X82214285Y-38714285D01*
X82071428Y-38428571D01*
X82071428Y-38142857D01*
X82214285Y-37857142D01*
X82499999Y-37714285D01*
X83214285Y-37714285D01*
X83499999Y-37571428D01*
X85357142Y-38857142D02*
X85071428Y-38714285D01*
X84928571Y-38428571D01*
X84928571Y-35857142D01*
X88785714Y-38857142D02*
X88785714Y-35857142D01*
X90499999Y-38857142D02*
X89214285Y-37142857D01*
X90499999Y-35857142D02*
X88785714Y-37571428D01*
X92928571Y-38714285D02*
X92642857Y-38857142D01*
X92071428Y-38857142D01*
X91785714Y-38714285D01*
X91642857Y-38428571D01*
X91642857Y-37285714D01*
X91785714Y-37000000D01*
X92071428Y-36857142D01*
X92642857Y-36857142D01*
X92928571Y-37000000D01*
X93071428Y-37285714D01*
X93071428Y-37571428D01*
X91642857Y-37857142D01*
X94071428Y-36857142D02*
X94785714Y-38857142D01*
X95500000Y-36857142D02*
X94785714Y-38857142D01*
X94500000Y-39571428D01*
X94357142Y-39714285D01*
X94071428Y-39857142D01*
X96642857Y-38857142D02*
X96642857Y-35857142D01*
X96642857Y-37000000D02*
X96928571Y-36857142D01*
X97500000Y-36857142D01*
X97785714Y-37000000D01*
X97928571Y-37142857D01*
X98071428Y-37428571D01*
X98071428Y-38285714D01*
X97928571Y-38571428D01*
X97785714Y-38714285D01*
X97500000Y-38857142D01*
X96928571Y-38857142D01*
X96642857Y-38714285D01*
X99785714Y-38857142D02*
X99500000Y-38714285D01*
X99357142Y-38571428D01*
X99214285Y-38285714D01*
X99214285Y-37428571D01*
X99357142Y-37142857D01*
X99500000Y-37000000D01*
X99785714Y-36857142D01*
X100214285Y-36857142D01*
X100500000Y-37000000D01*
X100642857Y-37142857D01*
X100785714Y-37428571D01*
X100785714Y-38285714D01*
X100642857Y-38571428D01*
X100500000Y-38714285D01*
X100214285Y-38857142D01*
X99785714Y-38857142D01*
X103357142Y-38857142D02*
X103357142Y-37285714D01*
X103214285Y-37000000D01*
X102928571Y-36857142D01*
X102357142Y-36857142D01*
X102071428Y-37000000D01*
X103357142Y-38714285D02*
X103071428Y-38857142D01*
X102357142Y-38857142D01*
X102071428Y-38714285D01*
X101928571Y-38428571D01*
X101928571Y-38142857D01*
X102071428Y-37857142D01*
X102357142Y-37714285D01*
X103071428Y-37714285D01*
X103357142Y-37571428D01*
X104785714Y-38857142D02*
X104785714Y-36857142D01*
X104785714Y-37428571D02*
X104928571Y-37142857D01*
X105071428Y-37000000D01*
X105357142Y-36857142D01*
X105642857Y-36857142D01*
X107928571Y-38857142D02*
X107928571Y-35857142D01*
X107928571Y-38714285D02*
X107642857Y-38857142D01*
X107071428Y-38857142D01*
X106785714Y-38714285D01*
X106642857Y-38571428D01*
X106500000Y-38285714D01*
X106500000Y-37428571D01*
X106642857Y-37142857D01*
X106785714Y-37000000D01*
X107071428Y-36857142D01*
X107642857Y-36857142D01*
X107928571Y-37000000D01*
X111357142Y-36857142D02*
X112071428Y-38857142D01*
X112785714Y-36857142D01*
X115500000Y-38857142D02*
X113785714Y-38857142D01*
X114642857Y-38857142D02*
X114642857Y-35857142D01*
X114357142Y-36285714D01*
X114071428Y-36571428D01*
X113785714Y-36714285D01*
X116785714Y-38571428D02*
X116928571Y-38714285D01*
X116785714Y-38857142D01*
X116642857Y-38714285D01*
X116785714Y-38571428D01*
X116785714Y-38857142D01*
X118785714Y-35857142D02*
X119071428Y-35857142D01*
X119357142Y-36000000D01*
X119500000Y-36142857D01*
X119642857Y-36428571D01*
X119785714Y-37000000D01*
X119785714Y-37714285D01*
X119642857Y-38285714D01*
X119500000Y-38571428D01*
X119357142Y-38714285D01*
X119071428Y-38857142D01*
X118785714Y-38857142D01*
X118500000Y-38714285D01*
X118357142Y-38571428D01*
X118214285Y-38285714D01*
X118071428Y-37714285D01*
X118071428Y-37000000D01*
X118214285Y-36428571D01*
X118357142Y-36142857D01*
X118500000Y-36000000D01*
X118785714Y-35857142D01*
D11*
%TO.C,SW8*%
X190666666Y-42530761D02*
X190809523Y-42578380D01*
X191047619Y-42578380D01*
X191142857Y-42530761D01*
X191190476Y-42483142D01*
X191238095Y-42387904D01*
X191238095Y-42292666D01*
X191190476Y-42197428D01*
X191142857Y-42149809D01*
X191047619Y-42102190D01*
X190857142Y-42054571D01*
X190761904Y-42006952D01*
X190714285Y-41959333D01*
X190666666Y-41864095D01*
X190666666Y-41768857D01*
X190714285Y-41673619D01*
X190761904Y-41626000D01*
X190857142Y-41578380D01*
X191095238Y-41578380D01*
X191238095Y-41626000D01*
X191571428Y-41578380D02*
X191809523Y-42578380D01*
X192000000Y-41864095D01*
X192190476Y-42578380D01*
X192428571Y-41578380D01*
X192952380Y-42006952D02*
X192857142Y-41959333D01*
X192809523Y-41911714D01*
X192761904Y-41816476D01*
X192761904Y-41768857D01*
X192809523Y-41673619D01*
X192857142Y-41626000D01*
X192952380Y-41578380D01*
X193142857Y-41578380D01*
X193238095Y-41626000D01*
X193285714Y-41673619D01*
X193333333Y-41768857D01*
X193333333Y-41816476D01*
X193285714Y-41911714D01*
X193238095Y-41959333D01*
X193142857Y-42006952D01*
X192952380Y-42006952D01*
X192857142Y-42054571D01*
X192809523Y-42102190D01*
X192761904Y-42197428D01*
X192761904Y-42387904D01*
X192809523Y-42483142D01*
X192857142Y-42530761D01*
X192952380Y-42578380D01*
X193142857Y-42578380D01*
X193238095Y-42530761D01*
X193285714Y-42483142D01*
X193333333Y-42387904D01*
X193333333Y-42197428D01*
X193285714Y-42102190D01*
X193238095Y-42054571D01*
X193142857Y-42006952D01*
%TO.C,SW12*%
X85190476Y-61530761D02*
X85333333Y-61578380D01*
X85571428Y-61578380D01*
X85666666Y-61530761D01*
X85714285Y-61483142D01*
X85761904Y-61387904D01*
X85761904Y-61292666D01*
X85714285Y-61197428D01*
X85666666Y-61149809D01*
X85571428Y-61102190D01*
X85380952Y-61054571D01*
X85285714Y-61006952D01*
X85238095Y-60959333D01*
X85190476Y-60864095D01*
X85190476Y-60768857D01*
X85238095Y-60673619D01*
X85285714Y-60626000D01*
X85380952Y-60578380D01*
X85619047Y-60578380D01*
X85761904Y-60626000D01*
X86095238Y-60578380D02*
X86333333Y-61578380D01*
X86523809Y-60864095D01*
X86714285Y-61578380D01*
X86952380Y-60578380D01*
X87857142Y-61578380D02*
X87285714Y-61578380D01*
X87571428Y-61578380D02*
X87571428Y-60578380D01*
X87476190Y-60721238D01*
X87380952Y-60816476D01*
X87285714Y-60864095D01*
X88238095Y-60673619D02*
X88285714Y-60626000D01*
X88380952Y-60578380D01*
X88619047Y-60578380D01*
X88714285Y-60626000D01*
X88761904Y-60673619D01*
X88809523Y-60768857D01*
X88809523Y-60864095D01*
X88761904Y-61006952D01*
X88190476Y-61578380D01*
X88809523Y-61578380D01*
%TO.C,SW36*%
X160190476Y-99530761D02*
X160333333Y-99578380D01*
X160571428Y-99578380D01*
X160666666Y-99530761D01*
X160714285Y-99483142D01*
X160761904Y-99387904D01*
X160761904Y-99292666D01*
X160714285Y-99197428D01*
X160666666Y-99149809D01*
X160571428Y-99102190D01*
X160380952Y-99054571D01*
X160285714Y-99006952D01*
X160238095Y-98959333D01*
X160190476Y-98864095D01*
X160190476Y-98768857D01*
X160238095Y-98673619D01*
X160285714Y-98626000D01*
X160380952Y-98578380D01*
X160619047Y-98578380D01*
X160761904Y-98626000D01*
X161095238Y-98578380D02*
X161333333Y-99578380D01*
X161523809Y-98864095D01*
X161714285Y-99578380D01*
X161952380Y-98578380D01*
X162238095Y-98578380D02*
X162857142Y-98578380D01*
X162523809Y-98959333D01*
X162666666Y-98959333D01*
X162761904Y-99006952D01*
X162809523Y-99054571D01*
X162857142Y-99149809D01*
X162857142Y-99387904D01*
X162809523Y-99483142D01*
X162761904Y-99530761D01*
X162666666Y-99578380D01*
X162380952Y-99578380D01*
X162285714Y-99530761D01*
X162238095Y-99483142D01*
X163714285Y-98578380D02*
X163523809Y-98578380D01*
X163428571Y-98626000D01*
X163380952Y-98673619D01*
X163285714Y-98816476D01*
X163238095Y-99006952D01*
X163238095Y-99387904D01*
X163285714Y-99483142D01*
X163333333Y-99530761D01*
X163428571Y-99578380D01*
X163619047Y-99578380D01*
X163714285Y-99530761D01*
X163761904Y-99483142D01*
X163809523Y-99387904D01*
X163809523Y-99149809D01*
X163761904Y-99054571D01*
X163714285Y-99006952D01*
X163619047Y-98959333D01*
X163428571Y-98959333D01*
X163333333Y-99006952D01*
X163285714Y-99054571D01*
X163238095Y-99149809D01*
%TO.C,SW22*%
X94190476Y-80530761D02*
X94333333Y-80578380D01*
X94571428Y-80578380D01*
X94666666Y-80530761D01*
X94714285Y-80483142D01*
X94761904Y-80387904D01*
X94761904Y-80292666D01*
X94714285Y-80197428D01*
X94666666Y-80149809D01*
X94571428Y-80102190D01*
X94380952Y-80054571D01*
X94285714Y-80006952D01*
X94238095Y-79959333D01*
X94190476Y-79864095D01*
X94190476Y-79768857D01*
X94238095Y-79673619D01*
X94285714Y-79626000D01*
X94380952Y-79578380D01*
X94619047Y-79578380D01*
X94761904Y-79626000D01*
X95095238Y-79578380D02*
X95333333Y-80578380D01*
X95523809Y-79864095D01*
X95714285Y-80578380D01*
X95952380Y-79578380D01*
X96285714Y-79673619D02*
X96333333Y-79626000D01*
X96428571Y-79578380D01*
X96666666Y-79578380D01*
X96761904Y-79626000D01*
X96809523Y-79673619D01*
X96857142Y-79768857D01*
X96857142Y-79864095D01*
X96809523Y-80006952D01*
X96238095Y-80578380D01*
X96857142Y-80578380D01*
X97238095Y-79673619D02*
X97285714Y-79626000D01*
X97380952Y-79578380D01*
X97619047Y-79578380D01*
X97714285Y-79626000D01*
X97761904Y-79673619D01*
X97809523Y-79768857D01*
X97809523Y-79864095D01*
X97761904Y-80006952D01*
X97190476Y-80578380D01*
X97809523Y-80578380D01*
%TO.C,SW24*%
X132190476Y-80530761D02*
X132333333Y-80578380D01*
X132571428Y-80578380D01*
X132666666Y-80530761D01*
X132714285Y-80483142D01*
X132761904Y-80387904D01*
X132761904Y-80292666D01*
X132714285Y-80197428D01*
X132666666Y-80149809D01*
X132571428Y-80102190D01*
X132380952Y-80054571D01*
X132285714Y-80006952D01*
X132238095Y-79959333D01*
X132190476Y-79864095D01*
X132190476Y-79768857D01*
X132238095Y-79673619D01*
X132285714Y-79626000D01*
X132380952Y-79578380D01*
X132619047Y-79578380D01*
X132761904Y-79626000D01*
X133095238Y-79578380D02*
X133333333Y-80578380D01*
X133523809Y-79864095D01*
X133714285Y-80578380D01*
X133952380Y-79578380D01*
X134285714Y-79673619D02*
X134333333Y-79626000D01*
X134428571Y-79578380D01*
X134666666Y-79578380D01*
X134761904Y-79626000D01*
X134809523Y-79673619D01*
X134857142Y-79768857D01*
X134857142Y-79864095D01*
X134809523Y-80006952D01*
X134238095Y-80578380D01*
X134857142Y-80578380D01*
X135714285Y-79911714D02*
X135714285Y-80578380D01*
X135476190Y-79530761D02*
X135238095Y-80245047D01*
X135857142Y-80245047D01*
%TO.C,SW18*%
X199190476Y-61530761D02*
X199333333Y-61578380D01*
X199571428Y-61578380D01*
X199666666Y-61530761D01*
X199714285Y-61483142D01*
X199761904Y-61387904D01*
X199761904Y-61292666D01*
X199714285Y-61197428D01*
X199666666Y-61149809D01*
X199571428Y-61102190D01*
X199380952Y-61054571D01*
X199285714Y-61006952D01*
X199238095Y-60959333D01*
X199190476Y-60864095D01*
X199190476Y-60768857D01*
X199238095Y-60673619D01*
X199285714Y-60626000D01*
X199380952Y-60578380D01*
X199619047Y-60578380D01*
X199761904Y-60626000D01*
X200095238Y-60578380D02*
X200333333Y-61578380D01*
X200523809Y-60864095D01*
X200714285Y-61578380D01*
X200952380Y-60578380D01*
X201857142Y-61578380D02*
X201285714Y-61578380D01*
X201571428Y-61578380D02*
X201571428Y-60578380D01*
X201476190Y-60721238D01*
X201380952Y-60816476D01*
X201285714Y-60864095D01*
X202428571Y-61006952D02*
X202333333Y-60959333D01*
X202285714Y-60911714D01*
X202238095Y-60816476D01*
X202238095Y-60768857D01*
X202285714Y-60673619D01*
X202333333Y-60626000D01*
X202428571Y-60578380D01*
X202619047Y-60578380D01*
X202714285Y-60626000D01*
X202761904Y-60673619D01*
X202809523Y-60768857D01*
X202809523Y-60816476D01*
X202761904Y-60911714D01*
X202714285Y-60959333D01*
X202619047Y-61006952D01*
X202428571Y-61006952D01*
X202333333Y-61054571D01*
X202285714Y-61102190D01*
X202238095Y-61197428D01*
X202238095Y-61387904D01*
X202285714Y-61483142D01*
X202333333Y-61530761D01*
X202428571Y-61578380D01*
X202619047Y-61578380D01*
X202714285Y-61530761D01*
X202761904Y-61483142D01*
X202809523Y-61387904D01*
X202809523Y-61197428D01*
X202761904Y-61102190D01*
X202714285Y-61054571D01*
X202619047Y-61006952D01*
%TO.C,SW31*%
X65190476Y-99530761D02*
X65333333Y-99578380D01*
X65571428Y-99578380D01*
X65666666Y-99530761D01*
X65714285Y-99483142D01*
X65761904Y-99387904D01*
X65761904Y-99292666D01*
X65714285Y-99197428D01*
X65666666Y-99149809D01*
X65571428Y-99102190D01*
X65380952Y-99054571D01*
X65285714Y-99006952D01*
X65238095Y-98959333D01*
X65190476Y-98864095D01*
X65190476Y-98768857D01*
X65238095Y-98673619D01*
X65285714Y-98626000D01*
X65380952Y-98578380D01*
X65619047Y-98578380D01*
X65761904Y-98626000D01*
X66095238Y-98578380D02*
X66333333Y-99578380D01*
X66523809Y-98864095D01*
X66714285Y-99578380D01*
X66952380Y-98578380D01*
X67238095Y-98578380D02*
X67857142Y-98578380D01*
X67523809Y-98959333D01*
X67666666Y-98959333D01*
X67761904Y-99006952D01*
X67809523Y-99054571D01*
X67857142Y-99149809D01*
X67857142Y-99387904D01*
X67809523Y-99483142D01*
X67761904Y-99530761D01*
X67666666Y-99578380D01*
X67380952Y-99578380D01*
X67285714Y-99530761D01*
X67238095Y-99483142D01*
X68809523Y-99578380D02*
X68238095Y-99578380D01*
X68523809Y-99578380D02*
X68523809Y-98578380D01*
X68428571Y-98721238D01*
X68333333Y-98816476D01*
X68238095Y-98864095D01*
%TO.C,SW26*%
X170190476Y-80530761D02*
X170333333Y-80578380D01*
X170571428Y-80578380D01*
X170666666Y-80530761D01*
X170714285Y-80483142D01*
X170761904Y-80387904D01*
X170761904Y-80292666D01*
X170714285Y-80197428D01*
X170666666Y-80149809D01*
X170571428Y-80102190D01*
X170380952Y-80054571D01*
X170285714Y-80006952D01*
X170238095Y-79959333D01*
X170190476Y-79864095D01*
X170190476Y-79768857D01*
X170238095Y-79673619D01*
X170285714Y-79626000D01*
X170380952Y-79578380D01*
X170619047Y-79578380D01*
X170761904Y-79626000D01*
X171095238Y-79578380D02*
X171333333Y-80578380D01*
X171523809Y-79864095D01*
X171714285Y-80578380D01*
X171952380Y-79578380D01*
X172285714Y-79673619D02*
X172333333Y-79626000D01*
X172428571Y-79578380D01*
X172666666Y-79578380D01*
X172761904Y-79626000D01*
X172809523Y-79673619D01*
X172857142Y-79768857D01*
X172857142Y-79864095D01*
X172809523Y-80006952D01*
X172238095Y-80578380D01*
X172857142Y-80578380D01*
X173714285Y-79578380D02*
X173523809Y-79578380D01*
X173428571Y-79626000D01*
X173380952Y-79673619D01*
X173285714Y-79816476D01*
X173238095Y-80006952D01*
X173238095Y-80387904D01*
X173285714Y-80483142D01*
X173333333Y-80530761D01*
X173428571Y-80578380D01*
X173619047Y-80578380D01*
X173714285Y-80530761D01*
X173761904Y-80483142D01*
X173809523Y-80387904D01*
X173809523Y-80149809D01*
X173761904Y-80054571D01*
X173714285Y-80006952D01*
X173619047Y-79959333D01*
X173428571Y-79959333D01*
X173333333Y-80006952D01*
X173285714Y-80054571D01*
X173238095Y-80149809D01*
%TO.C,SW28*%
X208190476Y-80530761D02*
X208333333Y-80578380D01*
X208571428Y-80578380D01*
X208666666Y-80530761D01*
X208714285Y-80483142D01*
X208761904Y-80387904D01*
X208761904Y-80292666D01*
X208714285Y-80197428D01*
X208666666Y-80149809D01*
X208571428Y-80102190D01*
X208380952Y-80054571D01*
X208285714Y-80006952D01*
X208238095Y-79959333D01*
X208190476Y-79864095D01*
X208190476Y-79768857D01*
X208238095Y-79673619D01*
X208285714Y-79626000D01*
X208380952Y-79578380D01*
X208619047Y-79578380D01*
X208761904Y-79626000D01*
X209095238Y-79578380D02*
X209333333Y-80578380D01*
X209523809Y-79864095D01*
X209714285Y-80578380D01*
X209952380Y-79578380D01*
X210285714Y-79673619D02*
X210333333Y-79626000D01*
X210428571Y-79578380D01*
X210666666Y-79578380D01*
X210761904Y-79626000D01*
X210809523Y-79673619D01*
X210857142Y-79768857D01*
X210857142Y-79864095D01*
X210809523Y-80006952D01*
X210238095Y-80578380D01*
X210857142Y-80578380D01*
X211428571Y-80006952D02*
X211333333Y-79959333D01*
X211285714Y-79911714D01*
X211238095Y-79816476D01*
X211238095Y-79768857D01*
X211285714Y-79673619D01*
X211333333Y-79626000D01*
X211428571Y-79578380D01*
X211619047Y-79578380D01*
X211714285Y-79626000D01*
X211761904Y-79673619D01*
X211809523Y-79768857D01*
X211809523Y-79816476D01*
X211761904Y-79911714D01*
X211714285Y-79959333D01*
X211619047Y-80006952D01*
X211428571Y-80006952D01*
X211333333Y-80054571D01*
X211285714Y-80102190D01*
X211238095Y-80197428D01*
X211238095Y-80387904D01*
X211285714Y-80483142D01*
X211333333Y-80530761D01*
X211428571Y-80578380D01*
X211619047Y-80578380D01*
X211714285Y-80530761D01*
X211761904Y-80483142D01*
X211809523Y-80387904D01*
X211809523Y-80197428D01*
X211761904Y-80102190D01*
X211714285Y-80054571D01*
X211619047Y-80006952D01*
%TO.C,J2*%
X211247380Y-36333333D02*
X211961666Y-36333333D01*
X212104523Y-36380952D01*
X212199761Y-36476190D01*
X212247380Y-36619047D01*
X212247380Y-36714285D01*
X211342619Y-35904761D02*
X211295000Y-35857142D01*
X211247380Y-35761904D01*
X211247380Y-35523809D01*
X211295000Y-35428571D01*
X211342619Y-35380952D01*
X211437857Y-35333333D01*
X211533095Y-35333333D01*
X211675952Y-35380952D01*
X212247380Y-35952380D01*
X212247380Y-35333333D01*
%TO.C,SW11*%
X66190476Y-61530761D02*
X66333333Y-61578380D01*
X66571428Y-61578380D01*
X66666666Y-61530761D01*
X66714285Y-61483142D01*
X66761904Y-61387904D01*
X66761904Y-61292666D01*
X66714285Y-61197428D01*
X66666666Y-61149809D01*
X66571428Y-61102190D01*
X66380952Y-61054571D01*
X66285714Y-61006952D01*
X66238095Y-60959333D01*
X66190476Y-60864095D01*
X66190476Y-60768857D01*
X66238095Y-60673619D01*
X66285714Y-60626000D01*
X66380952Y-60578380D01*
X66619047Y-60578380D01*
X66761904Y-60626000D01*
X67095238Y-60578380D02*
X67333333Y-61578380D01*
X67523809Y-60864095D01*
X67714285Y-61578380D01*
X67952380Y-60578380D01*
X68857142Y-61578380D02*
X68285714Y-61578380D01*
X68571428Y-61578380D02*
X68571428Y-60578380D01*
X68476190Y-60721238D01*
X68380952Y-60816476D01*
X68285714Y-60864095D01*
X69809523Y-61578380D02*
X69238095Y-61578380D01*
X69523809Y-61578380D02*
X69523809Y-60578380D01*
X69428571Y-60721238D01*
X69333333Y-60816476D01*
X69238095Y-60864095D01*
%TO.C,SW25*%
X151190476Y-80530761D02*
X151333333Y-80578380D01*
X151571428Y-80578380D01*
X151666666Y-80530761D01*
X151714285Y-80483142D01*
X151761904Y-80387904D01*
X151761904Y-80292666D01*
X151714285Y-80197428D01*
X151666666Y-80149809D01*
X151571428Y-80102190D01*
X151380952Y-80054571D01*
X151285714Y-80006952D01*
X151238095Y-79959333D01*
X151190476Y-79864095D01*
X151190476Y-79768857D01*
X151238095Y-79673619D01*
X151285714Y-79626000D01*
X151380952Y-79578380D01*
X151619047Y-79578380D01*
X151761904Y-79626000D01*
X152095238Y-79578380D02*
X152333333Y-80578380D01*
X152523809Y-79864095D01*
X152714285Y-80578380D01*
X152952380Y-79578380D01*
X153285714Y-79673619D02*
X153333333Y-79626000D01*
X153428571Y-79578380D01*
X153666666Y-79578380D01*
X153761904Y-79626000D01*
X153809523Y-79673619D01*
X153857142Y-79768857D01*
X153857142Y-79864095D01*
X153809523Y-80006952D01*
X153238095Y-80578380D01*
X153857142Y-80578380D01*
X154761904Y-79578380D02*
X154285714Y-79578380D01*
X154238095Y-80054571D01*
X154285714Y-80006952D01*
X154380952Y-79959333D01*
X154619047Y-79959333D01*
X154714285Y-80006952D01*
X154761904Y-80054571D01*
X154809523Y-80149809D01*
X154809523Y-80387904D01*
X154761904Y-80483142D01*
X154714285Y-80530761D01*
X154619047Y-80578380D01*
X154380952Y-80578380D01*
X154285714Y-80530761D01*
X154238095Y-80483142D01*
%TO.C,SW30*%
X46190476Y-99530761D02*
X46333333Y-99578380D01*
X46571428Y-99578380D01*
X46666666Y-99530761D01*
X46714285Y-99483142D01*
X46761904Y-99387904D01*
X46761904Y-99292666D01*
X46714285Y-99197428D01*
X46666666Y-99149809D01*
X46571428Y-99102190D01*
X46380952Y-99054571D01*
X46285714Y-99006952D01*
X46238095Y-98959333D01*
X46190476Y-98864095D01*
X46190476Y-98768857D01*
X46238095Y-98673619D01*
X46285714Y-98626000D01*
X46380952Y-98578380D01*
X46619047Y-98578380D01*
X46761904Y-98626000D01*
X47095238Y-98578380D02*
X47333333Y-99578380D01*
X47523809Y-98864095D01*
X47714285Y-99578380D01*
X47952380Y-98578380D01*
X48238095Y-98578380D02*
X48857142Y-98578380D01*
X48523809Y-98959333D01*
X48666666Y-98959333D01*
X48761904Y-99006952D01*
X48809523Y-99054571D01*
X48857142Y-99149809D01*
X48857142Y-99387904D01*
X48809523Y-99483142D01*
X48761904Y-99530761D01*
X48666666Y-99578380D01*
X48380952Y-99578380D01*
X48285714Y-99530761D01*
X48238095Y-99483142D01*
X49476190Y-98578380D02*
X49571428Y-98578380D01*
X49666666Y-98626000D01*
X49714285Y-98673619D01*
X49761904Y-98768857D01*
X49809523Y-98959333D01*
X49809523Y-99197428D01*
X49761904Y-99387904D01*
X49714285Y-99483142D01*
X49666666Y-99530761D01*
X49571428Y-99578380D01*
X49476190Y-99578380D01*
X49380952Y-99530761D01*
X49333333Y-99483142D01*
X49285714Y-99387904D01*
X49238095Y-99197428D01*
X49238095Y-98959333D01*
X49285714Y-98768857D01*
X49333333Y-98673619D01*
X49380952Y-98626000D01*
X49476190Y-98578380D01*
%TO.C,SW38*%
X198190476Y-99530761D02*
X198333333Y-99578380D01*
X198571428Y-99578380D01*
X198666666Y-99530761D01*
X198714285Y-99483142D01*
X198761904Y-99387904D01*
X198761904Y-99292666D01*
X198714285Y-99197428D01*
X198666666Y-99149809D01*
X198571428Y-99102190D01*
X198380952Y-99054571D01*
X198285714Y-99006952D01*
X198238095Y-98959333D01*
X198190476Y-98864095D01*
X198190476Y-98768857D01*
X198238095Y-98673619D01*
X198285714Y-98626000D01*
X198380952Y-98578380D01*
X198619047Y-98578380D01*
X198761904Y-98626000D01*
X199095238Y-98578380D02*
X199333333Y-99578380D01*
X199523809Y-98864095D01*
X199714285Y-99578380D01*
X199952380Y-98578380D01*
X200238095Y-98578380D02*
X200857142Y-98578380D01*
X200523809Y-98959333D01*
X200666666Y-98959333D01*
X200761904Y-99006952D01*
X200809523Y-99054571D01*
X200857142Y-99149809D01*
X200857142Y-99387904D01*
X200809523Y-99483142D01*
X200761904Y-99530761D01*
X200666666Y-99578380D01*
X200380952Y-99578380D01*
X200285714Y-99530761D01*
X200238095Y-99483142D01*
X201428571Y-99006952D02*
X201333333Y-98959333D01*
X201285714Y-98911714D01*
X201238095Y-98816476D01*
X201238095Y-98768857D01*
X201285714Y-98673619D01*
X201333333Y-98626000D01*
X201428571Y-98578380D01*
X201619047Y-98578380D01*
X201714285Y-98626000D01*
X201761904Y-98673619D01*
X201809523Y-98768857D01*
X201809523Y-98816476D01*
X201761904Y-98911714D01*
X201714285Y-98959333D01*
X201619047Y-99006952D01*
X201428571Y-99006952D01*
X201333333Y-99054571D01*
X201285714Y-99102190D01*
X201238095Y-99197428D01*
X201238095Y-99387904D01*
X201285714Y-99483142D01*
X201333333Y-99530761D01*
X201428571Y-99578380D01*
X201619047Y-99578380D01*
X201714285Y-99530761D01*
X201761904Y-99483142D01*
X201809523Y-99387904D01*
X201809523Y-99197428D01*
X201761904Y-99102190D01*
X201714285Y-99054571D01*
X201619047Y-99006952D01*
%TO.C,SW4*%
X114666666Y-42530761D02*
X114809523Y-42578380D01*
X115047619Y-42578380D01*
X115142857Y-42530761D01*
X115190476Y-42483142D01*
X115238095Y-42387904D01*
X115238095Y-42292666D01*
X115190476Y-42197428D01*
X115142857Y-42149809D01*
X115047619Y-42102190D01*
X114857142Y-42054571D01*
X114761904Y-42006952D01*
X114714285Y-41959333D01*
X114666666Y-41864095D01*
X114666666Y-41768857D01*
X114714285Y-41673619D01*
X114761904Y-41626000D01*
X114857142Y-41578380D01*
X115095238Y-41578380D01*
X115238095Y-41626000D01*
X115571428Y-41578380D02*
X115809523Y-42578380D01*
X116000000Y-41864095D01*
X116190476Y-42578380D01*
X116428571Y-41578380D01*
X117238095Y-41911714D02*
X117238095Y-42578380D01*
X117000000Y-41530761D02*
X116761904Y-42245047D01*
X117380952Y-42245047D01*
%TO.C,J1*%
X187047380Y-36333333D02*
X187761666Y-36333333D01*
X187904523Y-36380952D01*
X187999761Y-36476190D01*
X188047380Y-36619047D01*
X188047380Y-36714285D01*
X188047380Y-35333333D02*
X188047380Y-35904761D01*
X188047380Y-35619047D02*
X187047380Y-35619047D01*
X187190238Y-35714285D01*
X187285476Y-35809523D01*
X187333095Y-35904761D01*
%TO.C,SW15*%
X142190476Y-61530761D02*
X142333333Y-61578380D01*
X142571428Y-61578380D01*
X142666666Y-61530761D01*
X142714285Y-61483142D01*
X142761904Y-61387904D01*
X142761904Y-61292666D01*
X142714285Y-61197428D01*
X142666666Y-61149809D01*
X142571428Y-61102190D01*
X142380952Y-61054571D01*
X142285714Y-61006952D01*
X142238095Y-60959333D01*
X142190476Y-60864095D01*
X142190476Y-60768857D01*
X142238095Y-60673619D01*
X142285714Y-60626000D01*
X142380952Y-60578380D01*
X142619047Y-60578380D01*
X142761904Y-60626000D01*
X143095238Y-60578380D02*
X143333333Y-61578380D01*
X143523809Y-60864095D01*
X143714285Y-61578380D01*
X143952380Y-60578380D01*
X144857142Y-61578380D02*
X144285714Y-61578380D01*
X144571428Y-61578380D02*
X144571428Y-60578380D01*
X144476190Y-60721238D01*
X144380952Y-60816476D01*
X144285714Y-60864095D01*
X145761904Y-60578380D02*
X145285714Y-60578380D01*
X145238095Y-61054571D01*
X145285714Y-61006952D01*
X145380952Y-60959333D01*
X145619047Y-60959333D01*
X145714285Y-61006952D01*
X145761904Y-61054571D01*
X145809523Y-61149809D01*
X145809523Y-61387904D01*
X145761904Y-61483142D01*
X145714285Y-61530761D01*
X145619047Y-61578380D01*
X145380952Y-61578380D01*
X145285714Y-61530761D01*
X145238095Y-61483142D01*
%TO.C,SW14*%
X123190476Y-61530761D02*
X123333333Y-61578380D01*
X123571428Y-61578380D01*
X123666666Y-61530761D01*
X123714285Y-61483142D01*
X123761904Y-61387904D01*
X123761904Y-61292666D01*
X123714285Y-61197428D01*
X123666666Y-61149809D01*
X123571428Y-61102190D01*
X123380952Y-61054571D01*
X123285714Y-61006952D01*
X123238095Y-60959333D01*
X123190476Y-60864095D01*
X123190476Y-60768857D01*
X123238095Y-60673619D01*
X123285714Y-60626000D01*
X123380952Y-60578380D01*
X123619047Y-60578380D01*
X123761904Y-60626000D01*
X124095238Y-60578380D02*
X124333333Y-61578380D01*
X124523809Y-60864095D01*
X124714285Y-61578380D01*
X124952380Y-60578380D01*
X125857142Y-61578380D02*
X125285714Y-61578380D01*
X125571428Y-61578380D02*
X125571428Y-60578380D01*
X125476190Y-60721238D01*
X125380952Y-60816476D01*
X125285714Y-60864095D01*
X126714285Y-60911714D02*
X126714285Y-61578380D01*
X126476190Y-60530761D02*
X126238095Y-61245047D01*
X126857142Y-61245047D01*
%TO.C,SW1*%
X57666666Y-42530761D02*
X57809523Y-42578380D01*
X58047619Y-42578380D01*
X58142857Y-42530761D01*
X58190476Y-42483142D01*
X58238095Y-42387904D01*
X58238095Y-42292666D01*
X58190476Y-42197428D01*
X58142857Y-42149809D01*
X58047619Y-42102190D01*
X57857142Y-42054571D01*
X57761904Y-42006952D01*
X57714285Y-41959333D01*
X57666666Y-41864095D01*
X57666666Y-41768857D01*
X57714285Y-41673619D01*
X57761904Y-41626000D01*
X57857142Y-41578380D01*
X58095238Y-41578380D01*
X58238095Y-41626000D01*
X58571428Y-41578380D02*
X58809523Y-42578380D01*
X59000000Y-41864095D01*
X59190476Y-42578380D01*
X59428571Y-41578380D01*
X60333333Y-42578380D02*
X59761904Y-42578380D01*
X60047619Y-42578380D02*
X60047619Y-41578380D01*
X59952380Y-41721238D01*
X59857142Y-41816476D01*
X59761904Y-41864095D01*
%TO.C,SW13*%
X104190476Y-61530761D02*
X104333333Y-61578380D01*
X104571428Y-61578380D01*
X104666666Y-61530761D01*
X104714285Y-61483142D01*
X104761904Y-61387904D01*
X104761904Y-61292666D01*
X104714285Y-61197428D01*
X104666666Y-61149809D01*
X104571428Y-61102190D01*
X104380952Y-61054571D01*
X104285714Y-61006952D01*
X104238095Y-60959333D01*
X104190476Y-60864095D01*
X104190476Y-60768857D01*
X104238095Y-60673619D01*
X104285714Y-60626000D01*
X104380952Y-60578380D01*
X104619047Y-60578380D01*
X104761904Y-60626000D01*
X105095238Y-60578380D02*
X105333333Y-61578380D01*
X105523809Y-60864095D01*
X105714285Y-61578380D01*
X105952380Y-60578380D01*
X106857142Y-61578380D02*
X106285714Y-61578380D01*
X106571428Y-61578380D02*
X106571428Y-60578380D01*
X106476190Y-60721238D01*
X106380952Y-60816476D01*
X106285714Y-60864095D01*
X107190476Y-60578380D02*
X107809523Y-60578380D01*
X107476190Y-60959333D01*
X107619047Y-60959333D01*
X107714285Y-61006952D01*
X107761904Y-61054571D01*
X107809523Y-61149809D01*
X107809523Y-61387904D01*
X107761904Y-61483142D01*
X107714285Y-61530761D01*
X107619047Y-61578380D01*
X107333333Y-61578380D01*
X107238095Y-61530761D01*
X107190476Y-61483142D01*
%TO.C,SW32*%
X84190476Y-99530761D02*
X84333333Y-99578380D01*
X84571428Y-99578380D01*
X84666666Y-99530761D01*
X84714285Y-99483142D01*
X84761904Y-99387904D01*
X84761904Y-99292666D01*
X84714285Y-99197428D01*
X84666666Y-99149809D01*
X84571428Y-99102190D01*
X84380952Y-99054571D01*
X84285714Y-99006952D01*
X84238095Y-98959333D01*
X84190476Y-98864095D01*
X84190476Y-98768857D01*
X84238095Y-98673619D01*
X84285714Y-98626000D01*
X84380952Y-98578380D01*
X84619047Y-98578380D01*
X84761904Y-98626000D01*
X85095238Y-98578380D02*
X85333333Y-99578380D01*
X85523809Y-98864095D01*
X85714285Y-99578380D01*
X85952380Y-98578380D01*
X86238095Y-98578380D02*
X86857142Y-98578380D01*
X86523809Y-98959333D01*
X86666666Y-98959333D01*
X86761904Y-99006952D01*
X86809523Y-99054571D01*
X86857142Y-99149809D01*
X86857142Y-99387904D01*
X86809523Y-99483142D01*
X86761904Y-99530761D01*
X86666666Y-99578380D01*
X86380952Y-99578380D01*
X86285714Y-99530761D01*
X86238095Y-99483142D01*
X87238095Y-98673619D02*
X87285714Y-98626000D01*
X87380952Y-98578380D01*
X87619047Y-98578380D01*
X87714285Y-98626000D01*
X87761904Y-98673619D01*
X87809523Y-98768857D01*
X87809523Y-98864095D01*
X87761904Y-99006952D01*
X87190476Y-99578380D01*
X87809523Y-99578380D01*
%TO.C,SW33*%
X103190476Y-99530761D02*
X103333333Y-99578380D01*
X103571428Y-99578380D01*
X103666666Y-99530761D01*
X103714285Y-99483142D01*
X103761904Y-99387904D01*
X103761904Y-99292666D01*
X103714285Y-99197428D01*
X103666666Y-99149809D01*
X103571428Y-99102190D01*
X103380952Y-99054571D01*
X103285714Y-99006952D01*
X103238095Y-98959333D01*
X103190476Y-98864095D01*
X103190476Y-98768857D01*
X103238095Y-98673619D01*
X103285714Y-98626000D01*
X103380952Y-98578380D01*
X103619047Y-98578380D01*
X103761904Y-98626000D01*
X104095238Y-98578380D02*
X104333333Y-99578380D01*
X104523809Y-98864095D01*
X104714285Y-99578380D01*
X104952380Y-98578380D01*
X105238095Y-98578380D02*
X105857142Y-98578380D01*
X105523809Y-98959333D01*
X105666666Y-98959333D01*
X105761904Y-99006952D01*
X105809523Y-99054571D01*
X105857142Y-99149809D01*
X105857142Y-99387904D01*
X105809523Y-99483142D01*
X105761904Y-99530761D01*
X105666666Y-99578380D01*
X105380952Y-99578380D01*
X105285714Y-99530761D01*
X105238095Y-99483142D01*
X106190476Y-98578380D02*
X106809523Y-98578380D01*
X106476190Y-98959333D01*
X106619047Y-98959333D01*
X106714285Y-99006952D01*
X106761904Y-99054571D01*
X106809523Y-99149809D01*
X106809523Y-99387904D01*
X106761904Y-99483142D01*
X106714285Y-99530761D01*
X106619047Y-99578380D01*
X106333333Y-99578380D01*
X106238095Y-99530761D01*
X106190476Y-99483142D01*
%TO.C,SW17*%
X180190476Y-61530761D02*
X180333333Y-61578380D01*
X180571428Y-61578380D01*
X180666666Y-61530761D01*
X180714285Y-61483142D01*
X180761904Y-61387904D01*
X180761904Y-61292666D01*
X180714285Y-61197428D01*
X180666666Y-61149809D01*
X180571428Y-61102190D01*
X180380952Y-61054571D01*
X180285714Y-61006952D01*
X180238095Y-60959333D01*
X180190476Y-60864095D01*
X180190476Y-60768857D01*
X180238095Y-60673619D01*
X180285714Y-60626000D01*
X180380952Y-60578380D01*
X180619047Y-60578380D01*
X180761904Y-60626000D01*
X181095238Y-60578380D02*
X181333333Y-61578380D01*
X181523809Y-60864095D01*
X181714285Y-61578380D01*
X181952380Y-60578380D01*
X182857142Y-61578380D02*
X182285714Y-61578380D01*
X182571428Y-61578380D02*
X182571428Y-60578380D01*
X182476190Y-60721238D01*
X182380952Y-60816476D01*
X182285714Y-60864095D01*
X183190476Y-60578380D02*
X183857142Y-60578380D01*
X183428571Y-61578380D01*
%TO.C,SW0*%
X38666666Y-42530761D02*
X38809523Y-42578380D01*
X39047619Y-42578380D01*
X39142857Y-42530761D01*
X39190476Y-42483142D01*
X39238095Y-42387904D01*
X39238095Y-42292666D01*
X39190476Y-42197428D01*
X39142857Y-42149809D01*
X39047619Y-42102190D01*
X38857142Y-42054571D01*
X38761904Y-42006952D01*
X38714285Y-41959333D01*
X38666666Y-41864095D01*
X38666666Y-41768857D01*
X38714285Y-41673619D01*
X38761904Y-41626000D01*
X38857142Y-41578380D01*
X39095238Y-41578380D01*
X39238095Y-41626000D01*
X39571428Y-41578380D02*
X39809523Y-42578380D01*
X40000000Y-41864095D01*
X40190476Y-42578380D01*
X40428571Y-41578380D01*
X41000000Y-41578380D02*
X41095238Y-41578380D01*
X41190476Y-41626000D01*
X41238095Y-41673619D01*
X41285714Y-41768857D01*
X41333333Y-41959333D01*
X41333333Y-42197428D01*
X41285714Y-42387904D01*
X41238095Y-42483142D01*
X41190476Y-42530761D01*
X41095238Y-42578380D01*
X41000000Y-42578380D01*
X40904761Y-42530761D01*
X40857142Y-42483142D01*
X40809523Y-42387904D01*
X40761904Y-42197428D01*
X40761904Y-41959333D01*
X40809523Y-41768857D01*
X40857142Y-41673619D01*
X40904761Y-41626000D01*
X41000000Y-41578380D01*
%TO.C,SW39*%
X217190476Y-99530761D02*
X217333333Y-99578380D01*
X217571428Y-99578380D01*
X217666666Y-99530761D01*
X217714285Y-99483142D01*
X217761904Y-99387904D01*
X217761904Y-99292666D01*
X217714285Y-99197428D01*
X217666666Y-99149809D01*
X217571428Y-99102190D01*
X217380952Y-99054571D01*
X217285714Y-99006952D01*
X217238095Y-98959333D01*
X217190476Y-98864095D01*
X217190476Y-98768857D01*
X217238095Y-98673619D01*
X217285714Y-98626000D01*
X217380952Y-98578380D01*
X217619047Y-98578380D01*
X217761904Y-98626000D01*
X218095238Y-98578380D02*
X218333333Y-99578380D01*
X218523809Y-98864095D01*
X218714285Y-99578380D01*
X218952380Y-98578380D01*
X219238095Y-98578380D02*
X219857142Y-98578380D01*
X219523809Y-98959333D01*
X219666666Y-98959333D01*
X219761904Y-99006952D01*
X219809523Y-99054571D01*
X219857142Y-99149809D01*
X219857142Y-99387904D01*
X219809523Y-99483142D01*
X219761904Y-99530761D01*
X219666666Y-99578380D01*
X219380952Y-99578380D01*
X219285714Y-99530761D01*
X219238095Y-99483142D01*
X220333333Y-99578380D02*
X220523809Y-99578380D01*
X220619047Y-99530761D01*
X220666666Y-99483142D01*
X220761904Y-99340285D01*
X220809523Y-99149809D01*
X220809523Y-98768857D01*
X220761904Y-98673619D01*
X220714285Y-98626000D01*
X220619047Y-98578380D01*
X220428571Y-98578380D01*
X220333333Y-98626000D01*
X220285714Y-98673619D01*
X220238095Y-98768857D01*
X220238095Y-99006952D01*
X220285714Y-99102190D01*
X220333333Y-99149809D01*
X220428571Y-99197428D01*
X220619047Y-99197428D01*
X220714285Y-99149809D01*
X220761904Y-99102190D01*
X220809523Y-99006952D01*
%TO.C,SW21*%
X75190476Y-80530761D02*
X75333333Y-80578380D01*
X75571428Y-80578380D01*
X75666666Y-80530761D01*
X75714285Y-80483142D01*
X75761904Y-80387904D01*
X75761904Y-80292666D01*
X75714285Y-80197428D01*
X75666666Y-80149809D01*
X75571428Y-80102190D01*
X75380952Y-80054571D01*
X75285714Y-80006952D01*
X75238095Y-79959333D01*
X75190476Y-79864095D01*
X75190476Y-79768857D01*
X75238095Y-79673619D01*
X75285714Y-79626000D01*
X75380952Y-79578380D01*
X75619047Y-79578380D01*
X75761904Y-79626000D01*
X76095238Y-79578380D02*
X76333333Y-80578380D01*
X76523809Y-79864095D01*
X76714285Y-80578380D01*
X76952380Y-79578380D01*
X77285714Y-79673619D02*
X77333333Y-79626000D01*
X77428571Y-79578380D01*
X77666666Y-79578380D01*
X77761904Y-79626000D01*
X77809523Y-79673619D01*
X77857142Y-79768857D01*
X77857142Y-79864095D01*
X77809523Y-80006952D01*
X77238095Y-80578380D01*
X77857142Y-80578380D01*
X78809523Y-80578380D02*
X78238095Y-80578380D01*
X78523809Y-80578380D02*
X78523809Y-79578380D01*
X78428571Y-79721238D01*
X78333333Y-79816476D01*
X78238095Y-79864095D01*
%TO.C,SW29*%
X227190476Y-80530761D02*
X227333333Y-80578380D01*
X227571428Y-80578380D01*
X227666666Y-80530761D01*
X227714285Y-80483142D01*
X227761904Y-80387904D01*
X227761904Y-80292666D01*
X227714285Y-80197428D01*
X227666666Y-80149809D01*
X227571428Y-80102190D01*
X227380952Y-80054571D01*
X227285714Y-80006952D01*
X227238095Y-79959333D01*
X227190476Y-79864095D01*
X227190476Y-79768857D01*
X227238095Y-79673619D01*
X227285714Y-79626000D01*
X227380952Y-79578380D01*
X227619047Y-79578380D01*
X227761904Y-79626000D01*
X228095238Y-79578380D02*
X228333333Y-80578380D01*
X228523809Y-79864095D01*
X228714285Y-80578380D01*
X228952380Y-79578380D01*
X229285714Y-79673619D02*
X229333333Y-79626000D01*
X229428571Y-79578380D01*
X229666666Y-79578380D01*
X229761904Y-79626000D01*
X229809523Y-79673619D01*
X229857142Y-79768857D01*
X229857142Y-79864095D01*
X229809523Y-80006952D01*
X229238095Y-80578380D01*
X229857142Y-80578380D01*
X230333333Y-80578380D02*
X230523809Y-80578380D01*
X230619047Y-80530761D01*
X230666666Y-80483142D01*
X230761904Y-80340285D01*
X230809523Y-80149809D01*
X230809523Y-79768857D01*
X230761904Y-79673619D01*
X230714285Y-79626000D01*
X230619047Y-79578380D01*
X230428571Y-79578380D01*
X230333333Y-79626000D01*
X230285714Y-79673619D01*
X230238095Y-79768857D01*
X230238095Y-80006952D01*
X230285714Y-80102190D01*
X230333333Y-80149809D01*
X230428571Y-80197428D01*
X230619047Y-80197428D01*
X230714285Y-80149809D01*
X230761904Y-80102190D01*
X230809523Y-80006952D01*
%TO.C,SW23*%
X113190476Y-80530761D02*
X113333333Y-80578380D01*
X113571428Y-80578380D01*
X113666666Y-80530761D01*
X113714285Y-80483142D01*
X113761904Y-80387904D01*
X113761904Y-80292666D01*
X113714285Y-80197428D01*
X113666666Y-80149809D01*
X113571428Y-80102190D01*
X113380952Y-80054571D01*
X113285714Y-80006952D01*
X113238095Y-79959333D01*
X113190476Y-79864095D01*
X113190476Y-79768857D01*
X113238095Y-79673619D01*
X113285714Y-79626000D01*
X113380952Y-79578380D01*
X113619047Y-79578380D01*
X113761904Y-79626000D01*
X114095238Y-79578380D02*
X114333333Y-80578380D01*
X114523809Y-79864095D01*
X114714285Y-80578380D01*
X114952380Y-79578380D01*
X115285714Y-79673619D02*
X115333333Y-79626000D01*
X115428571Y-79578380D01*
X115666666Y-79578380D01*
X115761904Y-79626000D01*
X115809523Y-79673619D01*
X115857142Y-79768857D01*
X115857142Y-79864095D01*
X115809523Y-80006952D01*
X115238095Y-80578380D01*
X115857142Y-80578380D01*
X116190476Y-79578380D02*
X116809523Y-79578380D01*
X116476190Y-79959333D01*
X116619047Y-79959333D01*
X116714285Y-80006952D01*
X116761904Y-80054571D01*
X116809523Y-80149809D01*
X116809523Y-80387904D01*
X116761904Y-80483142D01*
X116714285Y-80530761D01*
X116619047Y-80578380D01*
X116333333Y-80578380D01*
X116238095Y-80530761D01*
X116190476Y-80483142D01*
%TO.C,SW34*%
X122190476Y-99530761D02*
X122333333Y-99578380D01*
X122571428Y-99578380D01*
X122666666Y-99530761D01*
X122714285Y-99483142D01*
X122761904Y-99387904D01*
X122761904Y-99292666D01*
X122714285Y-99197428D01*
X122666666Y-99149809D01*
X122571428Y-99102190D01*
X122380952Y-99054571D01*
X122285714Y-99006952D01*
X122238095Y-98959333D01*
X122190476Y-98864095D01*
X122190476Y-98768857D01*
X122238095Y-98673619D01*
X122285714Y-98626000D01*
X122380952Y-98578380D01*
X122619047Y-98578380D01*
X122761904Y-98626000D01*
X123095238Y-98578380D02*
X123333333Y-99578380D01*
X123523809Y-98864095D01*
X123714285Y-99578380D01*
X123952380Y-98578380D01*
X124238095Y-98578380D02*
X124857142Y-98578380D01*
X124523809Y-98959333D01*
X124666666Y-98959333D01*
X124761904Y-99006952D01*
X124809523Y-99054571D01*
X124857142Y-99149809D01*
X124857142Y-99387904D01*
X124809523Y-99483142D01*
X124761904Y-99530761D01*
X124666666Y-99578380D01*
X124380952Y-99578380D01*
X124285714Y-99530761D01*
X124238095Y-99483142D01*
X125714285Y-98911714D02*
X125714285Y-99578380D01*
X125476190Y-98530761D02*
X125238095Y-99245047D01*
X125857142Y-99245047D01*
%TO.C,SW19*%
X218190476Y-61530761D02*
X218333333Y-61578380D01*
X218571428Y-61578380D01*
X218666666Y-61530761D01*
X218714285Y-61483142D01*
X218761904Y-61387904D01*
X218761904Y-61292666D01*
X218714285Y-61197428D01*
X218666666Y-61149809D01*
X218571428Y-61102190D01*
X218380952Y-61054571D01*
X218285714Y-61006952D01*
X218238095Y-60959333D01*
X218190476Y-60864095D01*
X218190476Y-60768857D01*
X218238095Y-60673619D01*
X218285714Y-60626000D01*
X218380952Y-60578380D01*
X218619047Y-60578380D01*
X218761904Y-60626000D01*
X219095238Y-60578380D02*
X219333333Y-61578380D01*
X219523809Y-60864095D01*
X219714285Y-61578380D01*
X219952380Y-60578380D01*
X220857142Y-61578380D02*
X220285714Y-61578380D01*
X220571428Y-61578380D02*
X220571428Y-60578380D01*
X220476190Y-60721238D01*
X220380952Y-60816476D01*
X220285714Y-60864095D01*
X221333333Y-61578380D02*
X221523809Y-61578380D01*
X221619047Y-61530761D01*
X221666666Y-61483142D01*
X221761904Y-61340285D01*
X221809523Y-61149809D01*
X221809523Y-60768857D01*
X221761904Y-60673619D01*
X221714285Y-60626000D01*
X221619047Y-60578380D01*
X221428571Y-60578380D01*
X221333333Y-60626000D01*
X221285714Y-60673619D01*
X221238095Y-60768857D01*
X221238095Y-61006952D01*
X221285714Y-61102190D01*
X221333333Y-61149809D01*
X221428571Y-61197428D01*
X221619047Y-61197428D01*
X221714285Y-61149809D01*
X221761904Y-61102190D01*
X221809523Y-61006952D01*
%TO.C,SW2*%
X76666666Y-42530761D02*
X76809523Y-42578380D01*
X77047619Y-42578380D01*
X77142857Y-42530761D01*
X77190476Y-42483142D01*
X77238095Y-42387904D01*
X77238095Y-42292666D01*
X77190476Y-42197428D01*
X77142857Y-42149809D01*
X77047619Y-42102190D01*
X76857142Y-42054571D01*
X76761904Y-42006952D01*
X76714285Y-41959333D01*
X76666666Y-41864095D01*
X76666666Y-41768857D01*
X76714285Y-41673619D01*
X76761904Y-41626000D01*
X76857142Y-41578380D01*
X77095238Y-41578380D01*
X77238095Y-41626000D01*
X77571428Y-41578380D02*
X77809523Y-42578380D01*
X78000000Y-41864095D01*
X78190476Y-42578380D01*
X78428571Y-41578380D01*
X78761904Y-41673619D02*
X78809523Y-41626000D01*
X78904761Y-41578380D01*
X79142857Y-41578380D01*
X79238095Y-41626000D01*
X79285714Y-41673619D01*
X79333333Y-41768857D01*
X79333333Y-41864095D01*
X79285714Y-42006952D01*
X78714285Y-42578380D01*
X79333333Y-42578380D01*
%TO.C,SW5*%
X133666666Y-42530761D02*
X133809523Y-42578380D01*
X134047619Y-42578380D01*
X134142857Y-42530761D01*
X134190476Y-42483142D01*
X134238095Y-42387904D01*
X134238095Y-42292666D01*
X134190476Y-42197428D01*
X134142857Y-42149809D01*
X134047619Y-42102190D01*
X133857142Y-42054571D01*
X133761904Y-42006952D01*
X133714285Y-41959333D01*
X133666666Y-41864095D01*
X133666666Y-41768857D01*
X133714285Y-41673619D01*
X133761904Y-41626000D01*
X133857142Y-41578380D01*
X134095238Y-41578380D01*
X134238095Y-41626000D01*
X134571428Y-41578380D02*
X134809523Y-42578380D01*
X135000000Y-41864095D01*
X135190476Y-42578380D01*
X135428571Y-41578380D01*
X136285714Y-41578380D02*
X135809523Y-41578380D01*
X135761904Y-42054571D01*
X135809523Y-42006952D01*
X135904761Y-41959333D01*
X136142857Y-41959333D01*
X136238095Y-42006952D01*
X136285714Y-42054571D01*
X136333333Y-42149809D01*
X136333333Y-42387904D01*
X136285714Y-42483142D01*
X136238095Y-42530761D01*
X136142857Y-42578380D01*
X135904761Y-42578380D01*
X135809523Y-42530761D01*
X135761904Y-42483142D01*
%TO.C,SW6*%
X152666666Y-42530761D02*
X152809523Y-42578380D01*
X153047619Y-42578380D01*
X153142857Y-42530761D01*
X153190476Y-42483142D01*
X153238095Y-42387904D01*
X153238095Y-42292666D01*
X153190476Y-42197428D01*
X153142857Y-42149809D01*
X153047619Y-42102190D01*
X152857142Y-42054571D01*
X152761904Y-42006952D01*
X152714285Y-41959333D01*
X152666666Y-41864095D01*
X152666666Y-41768857D01*
X152714285Y-41673619D01*
X152761904Y-41626000D01*
X152857142Y-41578380D01*
X153095238Y-41578380D01*
X153238095Y-41626000D01*
X153571428Y-41578380D02*
X153809523Y-42578380D01*
X154000000Y-41864095D01*
X154190476Y-42578380D01*
X154428571Y-41578380D01*
X155238095Y-41578380D02*
X155047619Y-41578380D01*
X154952380Y-41626000D01*
X154904761Y-41673619D01*
X154809523Y-41816476D01*
X154761904Y-42006952D01*
X154761904Y-42387904D01*
X154809523Y-42483142D01*
X154857142Y-42530761D01*
X154952380Y-42578380D01*
X155142857Y-42578380D01*
X155238095Y-42530761D01*
X155285714Y-42483142D01*
X155333333Y-42387904D01*
X155333333Y-42149809D01*
X155285714Y-42054571D01*
X155238095Y-42006952D01*
X155142857Y-41959333D01*
X154952380Y-41959333D01*
X154857142Y-42006952D01*
X154809523Y-42054571D01*
X154761904Y-42149809D01*
%TO.C,SW37*%
X179190476Y-99530761D02*
X179333333Y-99578380D01*
X179571428Y-99578380D01*
X179666666Y-99530761D01*
X179714285Y-99483142D01*
X179761904Y-99387904D01*
X179761904Y-99292666D01*
X179714285Y-99197428D01*
X179666666Y-99149809D01*
X179571428Y-99102190D01*
X179380952Y-99054571D01*
X179285714Y-99006952D01*
X179238095Y-98959333D01*
X179190476Y-98864095D01*
X179190476Y-98768857D01*
X179238095Y-98673619D01*
X179285714Y-98626000D01*
X179380952Y-98578380D01*
X179619047Y-98578380D01*
X179761904Y-98626000D01*
X180095238Y-98578380D02*
X180333333Y-99578380D01*
X180523809Y-98864095D01*
X180714285Y-99578380D01*
X180952380Y-98578380D01*
X181238095Y-98578380D02*
X181857142Y-98578380D01*
X181523809Y-98959333D01*
X181666666Y-98959333D01*
X181761904Y-99006952D01*
X181809523Y-99054571D01*
X181857142Y-99149809D01*
X181857142Y-99387904D01*
X181809523Y-99483142D01*
X181761904Y-99530761D01*
X181666666Y-99578380D01*
X181380952Y-99578380D01*
X181285714Y-99530761D01*
X181238095Y-99483142D01*
X182190476Y-98578380D02*
X182857142Y-98578380D01*
X182428571Y-99578380D01*
%TO.C,SW16*%
X161190476Y-61530761D02*
X161333333Y-61578380D01*
X161571428Y-61578380D01*
X161666666Y-61530761D01*
X161714285Y-61483142D01*
X161761904Y-61387904D01*
X161761904Y-61292666D01*
X161714285Y-61197428D01*
X161666666Y-61149809D01*
X161571428Y-61102190D01*
X161380952Y-61054571D01*
X161285714Y-61006952D01*
X161238095Y-60959333D01*
X161190476Y-60864095D01*
X161190476Y-60768857D01*
X161238095Y-60673619D01*
X161285714Y-60626000D01*
X161380952Y-60578380D01*
X161619047Y-60578380D01*
X161761904Y-60626000D01*
X162095238Y-60578380D02*
X162333333Y-61578380D01*
X162523809Y-60864095D01*
X162714285Y-61578380D01*
X162952380Y-60578380D01*
X163857142Y-61578380D02*
X163285714Y-61578380D01*
X163571428Y-61578380D02*
X163571428Y-60578380D01*
X163476190Y-60721238D01*
X163380952Y-60816476D01*
X163285714Y-60864095D01*
X164714285Y-60578380D02*
X164523809Y-60578380D01*
X164428571Y-60626000D01*
X164380952Y-60673619D01*
X164285714Y-60816476D01*
X164238095Y-61006952D01*
X164238095Y-61387904D01*
X164285714Y-61483142D01*
X164333333Y-61530761D01*
X164428571Y-61578380D01*
X164619047Y-61578380D01*
X164714285Y-61530761D01*
X164761904Y-61483142D01*
X164809523Y-61387904D01*
X164809523Y-61149809D01*
X164761904Y-61054571D01*
X164714285Y-61006952D01*
X164619047Y-60959333D01*
X164428571Y-60959333D01*
X164333333Y-61006952D01*
X164285714Y-61054571D01*
X164238095Y-61149809D01*
%TO.C,SW27*%
X189190476Y-80530761D02*
X189333333Y-80578380D01*
X189571428Y-80578380D01*
X189666666Y-80530761D01*
X189714285Y-80483142D01*
X189761904Y-80387904D01*
X189761904Y-80292666D01*
X189714285Y-80197428D01*
X189666666Y-80149809D01*
X189571428Y-80102190D01*
X189380952Y-80054571D01*
X189285714Y-80006952D01*
X189238095Y-79959333D01*
X189190476Y-79864095D01*
X189190476Y-79768857D01*
X189238095Y-79673619D01*
X189285714Y-79626000D01*
X189380952Y-79578380D01*
X189619047Y-79578380D01*
X189761904Y-79626000D01*
X190095238Y-79578380D02*
X190333333Y-80578380D01*
X190523809Y-79864095D01*
X190714285Y-80578380D01*
X190952380Y-79578380D01*
X191285714Y-79673619D02*
X191333333Y-79626000D01*
X191428571Y-79578380D01*
X191666666Y-79578380D01*
X191761904Y-79626000D01*
X191809523Y-79673619D01*
X191857142Y-79768857D01*
X191857142Y-79864095D01*
X191809523Y-80006952D01*
X191238095Y-80578380D01*
X191857142Y-80578380D01*
X192190476Y-79578380D02*
X192857142Y-79578380D01*
X192428571Y-80578380D01*
%TO.C,SW20*%
X56190476Y-80530761D02*
X56333333Y-80578380D01*
X56571428Y-80578380D01*
X56666666Y-80530761D01*
X56714285Y-80483142D01*
X56761904Y-80387904D01*
X56761904Y-80292666D01*
X56714285Y-80197428D01*
X56666666Y-80149809D01*
X56571428Y-80102190D01*
X56380952Y-80054571D01*
X56285714Y-80006952D01*
X56238095Y-79959333D01*
X56190476Y-79864095D01*
X56190476Y-79768857D01*
X56238095Y-79673619D01*
X56285714Y-79626000D01*
X56380952Y-79578380D01*
X56619047Y-79578380D01*
X56761904Y-79626000D01*
X57095238Y-79578380D02*
X57333333Y-80578380D01*
X57523809Y-79864095D01*
X57714285Y-80578380D01*
X57952380Y-79578380D01*
X58285714Y-79673619D02*
X58333333Y-79626000D01*
X58428571Y-79578380D01*
X58666666Y-79578380D01*
X58761904Y-79626000D01*
X58809523Y-79673619D01*
X58857142Y-79768857D01*
X58857142Y-79864095D01*
X58809523Y-80006952D01*
X58238095Y-80578380D01*
X58857142Y-80578380D01*
X59476190Y-79578380D02*
X59571428Y-79578380D01*
X59666666Y-79626000D01*
X59714285Y-79673619D01*
X59761904Y-79768857D01*
X59809523Y-79959333D01*
X59809523Y-80197428D01*
X59761904Y-80387904D01*
X59714285Y-80483142D01*
X59666666Y-80530761D01*
X59571428Y-80578380D01*
X59476190Y-80578380D01*
X59380952Y-80530761D01*
X59333333Y-80483142D01*
X59285714Y-80387904D01*
X59238095Y-80197428D01*
X59238095Y-79959333D01*
X59285714Y-79768857D01*
X59333333Y-79673619D01*
X59380952Y-79626000D01*
X59476190Y-79578380D01*
%TO.C,SW3*%
X95666666Y-42530761D02*
X95809523Y-42578380D01*
X96047619Y-42578380D01*
X96142857Y-42530761D01*
X96190476Y-42483142D01*
X96238095Y-42387904D01*
X96238095Y-42292666D01*
X96190476Y-42197428D01*
X96142857Y-42149809D01*
X96047619Y-42102190D01*
X95857142Y-42054571D01*
X95761904Y-42006952D01*
X95714285Y-41959333D01*
X95666666Y-41864095D01*
X95666666Y-41768857D01*
X95714285Y-41673619D01*
X95761904Y-41626000D01*
X95857142Y-41578380D01*
X96095238Y-41578380D01*
X96238095Y-41626000D01*
X96571428Y-41578380D02*
X96809523Y-42578380D01*
X97000000Y-41864095D01*
X97190476Y-42578380D01*
X97428571Y-41578380D01*
X97714285Y-41578380D02*
X98333333Y-41578380D01*
X98000000Y-41959333D01*
X98142857Y-41959333D01*
X98238095Y-42006952D01*
X98285714Y-42054571D01*
X98333333Y-42149809D01*
X98333333Y-42387904D01*
X98285714Y-42483142D01*
X98238095Y-42530761D01*
X98142857Y-42578380D01*
X97857142Y-42578380D01*
X97761904Y-42530761D01*
X97714285Y-42483142D01*
%TO.C,SW35*%
X141190476Y-99530761D02*
X141333333Y-99578380D01*
X141571428Y-99578380D01*
X141666666Y-99530761D01*
X141714285Y-99483142D01*
X141761904Y-99387904D01*
X141761904Y-99292666D01*
X141714285Y-99197428D01*
X141666666Y-99149809D01*
X141571428Y-99102190D01*
X141380952Y-99054571D01*
X141285714Y-99006952D01*
X141238095Y-98959333D01*
X141190476Y-98864095D01*
X141190476Y-98768857D01*
X141238095Y-98673619D01*
X141285714Y-98626000D01*
X141380952Y-98578380D01*
X141619047Y-98578380D01*
X141761904Y-98626000D01*
X142095238Y-98578380D02*
X142333333Y-99578380D01*
X142523809Y-98864095D01*
X142714285Y-99578380D01*
X142952380Y-98578380D01*
X143238095Y-98578380D02*
X143857142Y-98578380D01*
X143523809Y-98959333D01*
X143666666Y-98959333D01*
X143761904Y-99006952D01*
X143809523Y-99054571D01*
X143857142Y-99149809D01*
X143857142Y-99387904D01*
X143809523Y-99483142D01*
X143761904Y-99530761D01*
X143666666Y-99578380D01*
X143380952Y-99578380D01*
X143285714Y-99530761D01*
X143238095Y-99483142D01*
X144761904Y-98578380D02*
X144285714Y-98578380D01*
X144238095Y-99054571D01*
X144285714Y-99006952D01*
X144380952Y-98959333D01*
X144619047Y-98959333D01*
X144714285Y-99006952D01*
X144761904Y-99054571D01*
X144809523Y-99149809D01*
X144809523Y-99387904D01*
X144761904Y-99483142D01*
X144714285Y-99530761D01*
X144619047Y-99578380D01*
X144380952Y-99578380D01*
X144285714Y-99530761D01*
X144238095Y-99483142D01*
%TO.C,SW7*%
X171666666Y-42530761D02*
X171809523Y-42578380D01*
X172047619Y-42578380D01*
X172142857Y-42530761D01*
X172190476Y-42483142D01*
X172238095Y-42387904D01*
X172238095Y-42292666D01*
X172190476Y-42197428D01*
X172142857Y-42149809D01*
X172047619Y-42102190D01*
X171857142Y-42054571D01*
X171761904Y-42006952D01*
X171714285Y-41959333D01*
X171666666Y-41864095D01*
X171666666Y-41768857D01*
X171714285Y-41673619D01*
X171761904Y-41626000D01*
X171857142Y-41578380D01*
X172095238Y-41578380D01*
X172238095Y-41626000D01*
X172571428Y-41578380D02*
X172809523Y-42578380D01*
X173000000Y-41864095D01*
X173190476Y-42578380D01*
X173428571Y-41578380D01*
X173714285Y-41578380D02*
X174380952Y-41578380D01*
X173952380Y-42578380D01*
%TO.C,SW9*%
X209666666Y-42530761D02*
X209809523Y-42578380D01*
X210047619Y-42578380D01*
X210142857Y-42530761D01*
X210190476Y-42483142D01*
X210238095Y-42387904D01*
X210238095Y-42292666D01*
X210190476Y-42197428D01*
X210142857Y-42149809D01*
X210047619Y-42102190D01*
X209857142Y-42054571D01*
X209761904Y-42006952D01*
X209714285Y-41959333D01*
X209666666Y-41864095D01*
X209666666Y-41768857D01*
X209714285Y-41673619D01*
X209761904Y-41626000D01*
X209857142Y-41578380D01*
X210095238Y-41578380D01*
X210238095Y-41626000D01*
X210571428Y-41578380D02*
X210809523Y-42578380D01*
X211000000Y-41864095D01*
X211190476Y-42578380D01*
X211428571Y-41578380D01*
X211857142Y-42578380D02*
X212047619Y-42578380D01*
X212142857Y-42530761D01*
X212190476Y-42483142D01*
X212285714Y-42340285D01*
X212333333Y-42149809D01*
X212333333Y-41768857D01*
X212285714Y-41673619D01*
X212238095Y-41626000D01*
X212142857Y-41578380D01*
X211952380Y-41578380D01*
X211857142Y-41626000D01*
X211809523Y-41673619D01*
X211761904Y-41768857D01*
X211761904Y-42006952D01*
X211809523Y-42102190D01*
X211857142Y-42149809D01*
X211952380Y-42197428D01*
X212142857Y-42197428D01*
X212238095Y-42149809D01*
X212285714Y-42102190D01*
X212333333Y-42006952D01*
%TO.C,SW10*%
X47190476Y-61530761D02*
X47333333Y-61578380D01*
X47571428Y-61578380D01*
X47666666Y-61530761D01*
X47714285Y-61483142D01*
X47761904Y-61387904D01*
X47761904Y-61292666D01*
X47714285Y-61197428D01*
X47666666Y-61149809D01*
X47571428Y-61102190D01*
X47380952Y-61054571D01*
X47285714Y-61006952D01*
X47238095Y-60959333D01*
X47190476Y-60864095D01*
X47190476Y-60768857D01*
X47238095Y-60673619D01*
X47285714Y-60626000D01*
X47380952Y-60578380D01*
X47619047Y-60578380D01*
X47761904Y-60626000D01*
X48095238Y-60578380D02*
X48333333Y-61578380D01*
X48523809Y-60864095D01*
X48714285Y-61578380D01*
X48952380Y-60578380D01*
X49857142Y-61578380D02*
X49285714Y-61578380D01*
X49571428Y-61578380D02*
X49571428Y-60578380D01*
X49476190Y-60721238D01*
X49380952Y-60816476D01*
X49285714Y-60864095D01*
X50476190Y-60578380D02*
X50571428Y-60578380D01*
X50666666Y-60626000D01*
X50714285Y-60673619D01*
X50761904Y-60768857D01*
X50809523Y-60959333D01*
X50809523Y-61197428D01*
X50761904Y-61387904D01*
X50714285Y-61483142D01*
X50666666Y-61530761D01*
X50571428Y-61578380D01*
X50476190Y-61578380D01*
X50380952Y-61530761D01*
X50333333Y-61483142D01*
X50285714Y-61387904D01*
X50238095Y-61197428D01*
X50238095Y-60959333D01*
X50285714Y-60768857D01*
X50333333Y-60673619D01*
X50380952Y-60626000D01*
X50476190Y-60578380D01*
D12*
%TO.C,SW8*%
X185015000Y-56985000D02*
X185015000Y-43015000D01*
X185015000Y-43015000D02*
X198985000Y-43015000D01*
X198985000Y-43015000D02*
X198985000Y-56985000D01*
X198985000Y-56985000D02*
X185015000Y-56985000D01*
%TO.C,SW12*%
X80015000Y-75985000D02*
X80015000Y-62015000D01*
X93985000Y-62015000D02*
X93985000Y-75985000D01*
X80015000Y-62015000D02*
X93985000Y-62015000D01*
X93985000Y-75985000D02*
X80015000Y-75985000D01*
%TO.C,SW36*%
X155015000Y-100015000D02*
X168985000Y-100015000D01*
X168985000Y-100015000D02*
X168985000Y-113985000D01*
X168985000Y-113985000D02*
X155015000Y-113985000D01*
X155015000Y-113985000D02*
X155015000Y-100015000D01*
%TO.C,SW22*%
X89015000Y-81015000D02*
X102985000Y-81015000D01*
X102985000Y-94985000D02*
X89015000Y-94985000D01*
X89015000Y-94985000D02*
X89015000Y-81015000D01*
X102985000Y-81015000D02*
X102985000Y-94985000D01*
%TO.C,SW24*%
X140985000Y-81015000D02*
X140985000Y-94985000D01*
X127015000Y-94985000D02*
X127015000Y-81015000D01*
X127015000Y-81015000D02*
X140985000Y-81015000D01*
X140985000Y-94985000D02*
X127015000Y-94985000D01*
%TO.C,SW18*%
X207985000Y-75985000D02*
X194015000Y-75985000D01*
X207985000Y-62015000D02*
X207985000Y-75985000D01*
X194015000Y-62015000D02*
X207985000Y-62015000D01*
X194015000Y-75985000D02*
X194015000Y-62015000D01*
%TO.C,SW31*%
X60015000Y-113985000D02*
X60015000Y-100015000D01*
X60015000Y-100015000D02*
X73985000Y-100015000D01*
X73985000Y-100015000D02*
X73985000Y-113985000D01*
X73985000Y-113985000D02*
X60015000Y-113985000D01*
%TO.C,SW26*%
X178985000Y-81015000D02*
X178985000Y-94985000D01*
X165015000Y-81015000D02*
X178985000Y-81015000D01*
X178985000Y-94985000D02*
X165015000Y-94985000D01*
X165015000Y-94985000D02*
X165015000Y-81015000D01*
%TO.C,SW28*%
X203015000Y-81015000D02*
X216985000Y-81015000D01*
X203015000Y-94985000D02*
X203015000Y-81015000D01*
X216985000Y-94985000D02*
X203015000Y-94985000D01*
X216985000Y-81015000D02*
X216985000Y-94985000D01*
%TO.C,J2*%
X215395000Y-37330000D02*
X215395000Y-34670000D01*
X214125000Y-37330000D02*
X212795000Y-37330000D01*
X212795000Y-37330000D02*
X212795000Y-36000000D01*
X233235000Y-37330000D02*
X233235000Y-34670000D01*
X215395000Y-37330000D02*
X233235000Y-37330000D01*
X215395000Y-34670000D02*
X233235000Y-34670000D01*
%TO.C,SW11*%
X61015000Y-75985000D02*
X61015000Y-62015000D01*
X74985000Y-75985000D02*
X61015000Y-75985000D01*
X74985000Y-62015000D02*
X74985000Y-75985000D01*
X61015000Y-62015000D02*
X74985000Y-62015000D01*
%TO.C,SW25*%
X146015000Y-81015000D02*
X159985000Y-81015000D01*
X146015000Y-94985000D02*
X146015000Y-81015000D01*
X159985000Y-94985000D02*
X146015000Y-94985000D01*
X159985000Y-81015000D02*
X159985000Y-94985000D01*
%TO.C,SW30*%
X54985000Y-113985000D02*
X41015000Y-113985000D01*
X41015000Y-100015000D02*
X54985000Y-100015000D01*
X41015000Y-113985000D02*
X41015000Y-100015000D01*
X54985000Y-100015000D02*
X54985000Y-113985000D01*
%TO.C,SW38*%
X193015000Y-113985000D02*
X193015000Y-100015000D01*
X206985000Y-113985000D02*
X193015000Y-113985000D01*
X193015000Y-100015000D02*
X206985000Y-100015000D01*
X206985000Y-100015000D02*
X206985000Y-113985000D01*
%TO.C,SW4*%
X109015000Y-56985000D02*
X109015000Y-43015000D01*
X122985000Y-56985000D02*
X109015000Y-56985000D01*
X122985000Y-43015000D02*
X122985000Y-56985000D01*
X109015000Y-43015000D02*
X122985000Y-43015000D01*
%TO.C,J1*%
X189925000Y-37330000D02*
X188595000Y-37330000D01*
X188595000Y-37330000D02*
X188595000Y-36000000D01*
X191195000Y-37330000D02*
X201415000Y-37330000D01*
X201415000Y-37330000D02*
X201415000Y-34670000D01*
X191195000Y-34670000D02*
X201415000Y-34670000D01*
X191195000Y-37330000D02*
X191195000Y-34670000D01*
%TO.C,SW15*%
X150985000Y-75985000D02*
X137015000Y-75985000D01*
X150985000Y-62015000D02*
X150985000Y-75985000D01*
X137015000Y-75985000D02*
X137015000Y-62015000D01*
X137015000Y-62015000D02*
X150985000Y-62015000D01*
%TO.C,SW14*%
X118015000Y-62015000D02*
X131985000Y-62015000D01*
X131985000Y-62015000D02*
X131985000Y-75985000D01*
X118015000Y-75985000D02*
X118015000Y-62015000D01*
X131985000Y-75985000D02*
X118015000Y-75985000D01*
%TO.C,SW1*%
X65985000Y-56985000D02*
X52015000Y-56985000D01*
X52015000Y-43015000D02*
X65985000Y-43015000D01*
X65985000Y-43015000D02*
X65985000Y-56985000D01*
X52015000Y-56985000D02*
X52015000Y-43015000D01*
%TO.C,SW13*%
X99015000Y-75985000D02*
X99015000Y-62015000D01*
X99015000Y-62015000D02*
X112985000Y-62015000D01*
X112985000Y-75985000D02*
X99015000Y-75985000D01*
X112985000Y-62015000D02*
X112985000Y-75985000D01*
%TO.C,SW32*%
X92985000Y-100015000D02*
X92985000Y-113985000D01*
X79015000Y-113985000D02*
X79015000Y-100015000D01*
X79015000Y-100015000D02*
X92985000Y-100015000D01*
X92985000Y-113985000D02*
X79015000Y-113985000D01*
%TO.C,SW33*%
X111985000Y-100015000D02*
X111985000Y-113985000D01*
X111985000Y-113985000D02*
X98015000Y-113985000D01*
X98015000Y-100015000D02*
X111985000Y-100015000D01*
X98015000Y-113985000D02*
X98015000Y-100015000D01*
%TO.C,SW17*%
X188985000Y-75985000D02*
X175015000Y-75985000D01*
X175015000Y-62015000D02*
X188985000Y-62015000D01*
X175015000Y-75985000D02*
X175015000Y-62015000D01*
X188985000Y-62015000D02*
X188985000Y-75985000D01*
%TO.C,SW0*%
X33015000Y-56985000D02*
X33015000Y-43015000D01*
X46985000Y-56985000D02*
X33015000Y-56985000D01*
X33015000Y-43015000D02*
X46985000Y-43015000D01*
X46985000Y-43015000D02*
X46985000Y-56985000D01*
%TO.C,SW39*%
X225985000Y-100015000D02*
X225985000Y-113985000D01*
X212015000Y-113985000D02*
X212015000Y-100015000D01*
X212015000Y-100015000D02*
X225985000Y-100015000D01*
X225985000Y-113985000D02*
X212015000Y-113985000D01*
%TO.C,SW21*%
X83985000Y-81015000D02*
X83985000Y-94985000D01*
X70015000Y-94985000D02*
X70015000Y-81015000D01*
X83985000Y-94985000D02*
X70015000Y-94985000D01*
X70015000Y-81015000D02*
X83985000Y-81015000D01*
%TO.C,SW29*%
X235985000Y-94985000D02*
X222015000Y-94985000D01*
X235985000Y-81015000D02*
X235985000Y-94985000D01*
X222015000Y-94985000D02*
X222015000Y-81015000D01*
X222015000Y-81015000D02*
X235985000Y-81015000D01*
%TO.C,SW23*%
X108015000Y-81015000D02*
X121985000Y-81015000D01*
X121985000Y-81015000D02*
X121985000Y-94985000D01*
X108015000Y-94985000D02*
X108015000Y-81015000D01*
X121985000Y-94985000D02*
X108015000Y-94985000D01*
%TO.C,SW34*%
X130985000Y-113985000D02*
X117015000Y-113985000D01*
X130985000Y-100015000D02*
X130985000Y-113985000D01*
X117015000Y-113985000D02*
X117015000Y-100015000D01*
X117015000Y-100015000D02*
X130985000Y-100015000D01*
%TO.C,SW19*%
X226985000Y-75985000D02*
X213015000Y-75985000D01*
X213015000Y-75985000D02*
X213015000Y-62015000D01*
X226985000Y-62015000D02*
X226985000Y-75985000D01*
X213015000Y-62015000D02*
X226985000Y-62015000D01*
%TO.C,SW2*%
X84985000Y-43015000D02*
X84985000Y-56985000D01*
X71015000Y-43015000D02*
X84985000Y-43015000D01*
X71015000Y-56985000D02*
X71015000Y-43015000D01*
X84985000Y-56985000D02*
X71015000Y-56985000D01*
%TO.C,SW5*%
X141985000Y-56985000D02*
X128015000Y-56985000D01*
X128015000Y-56985000D02*
X128015000Y-43015000D01*
X141985000Y-43015000D02*
X141985000Y-56985000D01*
X128015000Y-43015000D02*
X141985000Y-43015000D01*
%TO.C,SW6*%
X160985000Y-56985000D02*
X147015000Y-56985000D01*
X147015000Y-56985000D02*
X147015000Y-43015000D01*
X160985000Y-43015000D02*
X160985000Y-56985000D01*
X147015000Y-43015000D02*
X160985000Y-43015000D01*
%TO.C,SW37*%
X187985000Y-113985000D02*
X174015000Y-113985000D01*
X174015000Y-100015000D02*
X187985000Y-100015000D01*
X187985000Y-100015000D02*
X187985000Y-113985000D01*
X174015000Y-113985000D02*
X174015000Y-100015000D01*
%TO.C,SW16*%
X169985000Y-75985000D02*
X156015000Y-75985000D01*
X169985000Y-62015000D02*
X169985000Y-75985000D01*
X156015000Y-75985000D02*
X156015000Y-62015000D01*
X156015000Y-62015000D02*
X169985000Y-62015000D01*
%TO.C,SW27*%
X197985000Y-94985000D02*
X184015000Y-94985000D01*
X184015000Y-94985000D02*
X184015000Y-81015000D01*
X184015000Y-81015000D02*
X197985000Y-81015000D01*
X197985000Y-81015000D02*
X197985000Y-94985000D01*
%TO.C,SW20*%
X51015000Y-94985000D02*
X51015000Y-81015000D01*
X64985000Y-94985000D02*
X51015000Y-94985000D01*
X51015000Y-81015000D02*
X64985000Y-81015000D01*
X64985000Y-81015000D02*
X64985000Y-94985000D01*
%TO.C,SW3*%
X90015000Y-56985000D02*
X90015000Y-43015000D01*
X103985000Y-56985000D02*
X90015000Y-56985000D01*
X103985000Y-43015000D02*
X103985000Y-56985000D01*
X90015000Y-43015000D02*
X103985000Y-43015000D01*
%TO.C,SW35*%
X149985000Y-100015000D02*
X149985000Y-113985000D01*
X136015000Y-100015000D02*
X149985000Y-100015000D01*
X149985000Y-113985000D02*
X136015000Y-113985000D01*
X136015000Y-113985000D02*
X136015000Y-100015000D01*
%TO.C,SW7*%
X179985000Y-56985000D02*
X166015000Y-56985000D01*
X179985000Y-43015000D02*
X179985000Y-56985000D01*
X166015000Y-56985000D02*
X166015000Y-43015000D01*
X166015000Y-43015000D02*
X179985000Y-43015000D01*
%TO.C,SW9*%
X217985000Y-56985000D02*
X204015000Y-56985000D01*
X204015000Y-56985000D02*
X204015000Y-43015000D01*
X204015000Y-43015000D02*
X217985000Y-43015000D01*
X217985000Y-43015000D02*
X217985000Y-56985000D01*
%TO.C,SW10*%
X42015000Y-75985000D02*
X42015000Y-62015000D01*
X55985000Y-62015000D02*
X55985000Y-75985000D01*
X42015000Y-62015000D02*
X55985000Y-62015000D01*
X55985000Y-75985000D02*
X42015000Y-75985000D01*
%TD*%
M02*
