M48
; DRILL file {KiCad 6.0.6-3a73a75311~116~ubuntu20.04.1} date Mon 11 Jul 2022 04:37:48 PM PDT
; FORMAT={-:-/ absolute / inch / decimal}
; #@! TF.CreationDate,2022-07-11T16:37:48-07:00
; #@! TF.GenerationSoftware,Kicad,Pcbnew,6.0.6-3a73a75311~116~ubuntu20.04.1
; #@! TF.FileFunction,Plated,1,2,PTH
FMAT,2
INCH
; #@! TA.AperFunction,Plated,PTH,ComponentDrill
T1C0.0394
; #@! TA.AperFunction,Plated,PTH,ComponentDrill
T2C0.0591
%
G90
G05
T1
X7.4774Y-1.4173
X7.5774Y-1.4173
X7.6774Y-1.4173
X7.7774Y-1.4173
X7.8774Y-1.4173
X8.4301Y-1.4173
X8.5301Y-1.4173
X8.6301Y-1.4173
X8.7301Y-1.4173
X8.8301Y-1.4173
X8.9301Y-1.4173
X9.0301Y-1.4173
X9.1301Y-1.4173
T2
X1.4248Y-1.8685
X1.6748Y-1.7685
X1.7398Y-4.1126
X1.7791Y-2.6165
X1.9898Y-4.0126
X2.0291Y-2.5165
X2.1335Y-3.3646
X2.1728Y-1.8685
X2.3835Y-3.2646
X2.4228Y-1.7685
X2.4878Y-4.1126
X2.5272Y-2.6165
X2.7378Y-4.0126
X2.7772Y-2.5165
X2.8815Y-3.3646
X2.9209Y-1.8685
X3.1315Y-3.2646
X3.1709Y-1.7685
X3.2358Y-4.1126
X3.2752Y-2.6165
X3.4858Y-4.0126
X3.5252Y-2.5165
X3.6295Y-3.3646
X3.6689Y-1.8685
X3.8795Y-3.2646
X3.9189Y-1.7685
X3.9839Y-4.1126
X4.0232Y-2.6165
X4.2339Y-4.0126
X4.2732Y-2.5165
X4.3776Y-3.3646
X4.4169Y-1.8685
X4.6276Y-3.2646
X4.6669Y-1.7685
X4.7319Y-4.1126
X4.7713Y-2.6165
X4.9819Y-4.0126
X5.0213Y-2.5165
X5.1256Y-3.3646
X5.165Y-1.8685
X5.3756Y-3.2646
X5.415Y-1.7685
X5.4799Y-4.1126
X5.5193Y-2.6165
X5.7299Y-4.0126
X5.7693Y-2.5165
X5.8736Y-3.3646
X5.913Y-1.8685
X6.1236Y-3.2646
X6.163Y-1.7685
X6.228Y-4.1126
X6.2673Y-2.6165
X6.478Y-4.0126
X6.5173Y-2.5165
X6.6217Y-3.3646
X6.661Y-1.8685
X6.8717Y-3.2646
X6.911Y-1.7685
X6.976Y-4.1126
X7.0154Y-2.6165
X7.226Y-4.0126
X7.2654Y-2.5165
X7.3697Y-3.3646
X7.4091Y-1.8685
X7.6197Y-3.2646
X7.6591Y-1.7685
X7.724Y-4.1126
X7.7634Y-2.6165
X7.974Y-4.0126
X8.0134Y-2.5165
X8.1177Y-3.3646
X8.1571Y-1.8685
X8.3677Y-3.2646
X8.4071Y-1.7685
X8.472Y-4.1126
X8.5114Y-2.6165
X8.722Y-4.0126
X8.7614Y-2.5165
X8.8657Y-3.3646
X9.1157Y-3.2646
T0
M30
