M48
; DRILL file {KiCad 6.0.6-3a73a75311~116~ubuntu20.04.1} date Mon 11 Jul 2022 04:37:48 PM PDT
; FORMAT={-:-/ absolute / inch / decimal}
; #@! TF.CreationDate,2022-07-11T16:37:48-07:00
; #@! TF.GenerationSoftware,Kicad,Pcbnew,6.0.6-3a73a75311~116~ubuntu20.04.1
; #@! TF.FileFunction,NonPlated,1,2,NPTH
FMAT,2
INCH
; #@! TA.AperFunction,NonPlated,NPTH,ComponentDrill
T1C0.0669
; #@! TA.AperFunction,NonPlated,NPTH,ComponentDrill
T2C0.1260
; #@! TA.AperFunction,NonPlated,NPTH,ComponentDrill
T3C0.1575
%
G90
G05
T1
X1.3748Y-1.9685
X1.6898Y-4.2126
X1.7291Y-2.7165
X1.7748Y-1.9685
X2.0835Y-3.4646
X2.0898Y-4.2126
X2.1228Y-1.9685
X2.1291Y-2.7165
X2.4378Y-4.2126
X2.4772Y-2.7165
X2.4835Y-3.4646
X2.5228Y-1.9685
X2.8315Y-3.4646
X2.8378Y-4.2126
X2.8709Y-1.9685
X2.8772Y-2.7165
X3.1858Y-4.2126
X3.2252Y-2.7165
X3.2315Y-3.4646
X3.2709Y-1.9685
X3.5795Y-3.4646
X3.5858Y-4.2126
X3.6189Y-1.9685
X3.6252Y-2.7165
X3.9339Y-4.2126
X3.9732Y-2.7165
X3.9795Y-3.4646
X4.0189Y-1.9685
X4.3276Y-3.4646
X4.3339Y-4.2126
X4.3669Y-1.9685
X4.3732Y-2.7165
X4.6819Y-4.2126
X4.7213Y-2.7165
X4.7276Y-3.4646
X4.7669Y-1.9685
X5.0756Y-3.4646
X5.0819Y-4.2126
X5.115Y-1.9685
X5.1213Y-2.7165
X5.4299Y-4.2126
X5.4693Y-2.7165
X5.4756Y-3.4646
X5.515Y-1.9685
X5.8236Y-3.4646
X5.8299Y-4.2126
X5.863Y-1.9685
X5.8693Y-2.7165
X6.178Y-4.2126
X6.2173Y-2.7165
X6.2236Y-3.4646
X6.263Y-1.9685
X6.5717Y-3.4646
X6.578Y-4.2126
X6.611Y-1.9685
X6.6173Y-2.7165
X6.926Y-4.2126
X6.9654Y-2.7165
X6.9717Y-3.4646
X7.011Y-1.9685
X7.3197Y-3.4646
X7.326Y-4.2126
X7.3591Y-1.9685
X7.3654Y-2.7165
X7.674Y-4.2126
X7.7134Y-2.7165
X7.7197Y-3.4646
X7.7591Y-1.9685
X8.0677Y-3.4646
X8.074Y-4.2126
X8.1071Y-1.9685
X8.1134Y-2.7165
X8.422Y-4.2126
X8.4614Y-2.7165
X8.4677Y-3.4646
X8.5071Y-1.9685
X8.8157Y-3.4646
X8.822Y-4.2126
X8.8614Y-2.7165
X9.2157Y-3.4646
T2
X1.2598Y-1.4961
X1.2598Y-4.5669
X9.3701Y-1.4961
X9.3701Y-4.5669
T3
X1.5748Y-1.9685
X1.8898Y-4.2126
X1.9291Y-2.7165
X2.2835Y-3.4646
X2.3228Y-1.9685
X2.6378Y-4.2126
X2.6772Y-2.7165
X3.0315Y-3.4646
X3.0709Y-1.9685
X3.3858Y-4.2126
X3.4252Y-2.7165
X3.7795Y-3.4646
X3.8189Y-1.9685
X4.1339Y-4.2126
X4.1732Y-2.7165
X4.5276Y-3.4646
X4.5669Y-1.9685
X4.8819Y-4.2126
X4.9213Y-2.7165
X5.2756Y-3.4646
X5.315Y-1.9685
X5.6299Y-4.2126
X5.6693Y-2.7165
X6.0236Y-3.4646
X6.063Y-1.9685
X6.378Y-4.2126
X6.4173Y-2.7165
X6.7717Y-3.4646
X6.811Y-1.9685
X7.126Y-4.2126
X7.1654Y-2.7165
X7.5197Y-3.4646
X7.5591Y-1.9685
X7.874Y-4.2126
X7.9134Y-2.7165
X8.2677Y-3.4646
X8.3071Y-1.9685
X8.622Y-4.2126
X8.6614Y-2.7165
X9.0157Y-3.4646
T0
M30
