%TF.GenerationSoftware,KiCad,Pcbnew,6.0.6-3a73a75311~116~ubuntu20.04.1*%
%TF.CreationDate,2022-07-11T16:37:52-07:00*%
%TF.ProjectId,zx81-kbd,7a783831-2d6b-4626-942e-6b696361645f,rev?*%
%TF.SameCoordinates,Original*%
%TF.FileFunction,Copper,L1,Top*%
%TF.FilePolarity,Positive*%
%FSLAX46Y46*%
G04 Gerber Fmt 4.6, Leading zero omitted, Abs format (unit mm)*
G04 Created by KiCad (PCBNEW 6.0.6-3a73a75311~116~ubuntu20.04.1) date 2022-07-11 16:37:52*
%MOMM*%
%LPD*%
G01*
G04 APERTURE LIST*
%TA.AperFunction,ComponentPad*%
%ADD10C,2.200000*%
%TD*%
%TA.AperFunction,ComponentPad*%
%ADD11R,1.700000X1.700000*%
%TD*%
%TA.AperFunction,ComponentPad*%
%ADD12O,1.700000X1.700000*%
%TD*%
%TA.AperFunction,Conductor*%
%ADD13C,0.250000*%
%TD*%
G04 APERTURE END LIST*
D10*
%TO.P,SW8,1,1*%
%TO.N,/KA12*%
X194540000Y-44920000D03*
%TO.P,SW8,2,2*%
%TO.N,/KD1*%
X188190000Y-47460000D03*
%TD*%
%TO.P,SW12,1,1*%
%TO.N,/KA10*%
X89540000Y-63920000D03*
%TO.P,SW12,2,2*%
%TO.N,/KD2*%
X83190000Y-66460000D03*
%TD*%
%TO.P,SW36,1,1*%
%TO.N,/KA15*%
X164540000Y-101920000D03*
%TO.P,SW36,2,2*%
%TO.N,/KD3*%
X158190000Y-104460000D03*
%TD*%
%TO.P,SW22,1,1*%
%TO.N,/KA9*%
X98540000Y-82920000D03*
%TO.P,SW22,2,2*%
%TO.N,/KD2*%
X92190000Y-85460000D03*
%TD*%
%TO.P,SW24,1,1*%
%TO.N,/KA9*%
X136540000Y-82920000D03*
%TO.P,SW24,2,2*%
%TO.N,/KD4*%
X130190000Y-85460000D03*
%TD*%
%TO.P,SW18,1,1*%
%TO.N,/KA13*%
X203540000Y-63920000D03*
%TO.P,SW18,2,2*%
%TO.N,/KD1*%
X197190000Y-66460000D03*
%TD*%
%TO.P,SW31,1,1*%
%TO.N,/KA8*%
X69540000Y-101920000D03*
%TO.P,SW31,2,2*%
%TO.N,/KD1*%
X63190000Y-104460000D03*
%TD*%
%TO.P,SW26,1,1*%
%TO.N,/KA14*%
X174540000Y-82920000D03*
%TO.P,SW26,2,2*%
%TO.N,/KD3*%
X168190000Y-85460000D03*
%TD*%
%TO.P,SW28,1,1*%
%TO.N,/KA14*%
X212540000Y-82920000D03*
%TO.P,SW28,2,2*%
%TO.N,/KD1*%
X206190000Y-85460000D03*
%TD*%
D11*
%TO.P,J2,1,Pin_1*%
%TO.N,/KA11*%
X214125000Y-36000000D03*
D12*
%TO.P,J2,2,Pin_2*%
%TO.N,/KA10*%
X216665000Y-36000000D03*
%TO.P,J2,3,Pin_3*%
%TO.N,/KA12*%
X219205000Y-36000000D03*
%TO.P,J2,4,Pin_4*%
%TO.N,/KA9*%
X221745000Y-36000000D03*
%TO.P,J2,5,Pin_5*%
%TO.N,/KA13*%
X224285000Y-36000000D03*
%TO.P,J2,6,Pin_6*%
%TO.N,/KA8*%
X226825000Y-36000000D03*
%TO.P,J2,7,Pin_7*%
%TO.N,/KA14*%
X229365000Y-36000000D03*
%TO.P,J2,8,Pin_8*%
%TO.N,/KA15*%
X231905000Y-36000000D03*
%TD*%
D10*
%TO.P,SW11,1,1*%
%TO.N,/KA10*%
X70540000Y-63920000D03*
%TO.P,SW11,2,2*%
%TO.N,/KD1*%
X64190000Y-66460000D03*
%TD*%
%TO.P,SW25,1,1*%
%TO.N,/KA14*%
X155540000Y-82920000D03*
%TO.P,SW25,2,2*%
%TO.N,/KD4*%
X149190000Y-85460000D03*
%TD*%
%TO.P,SW30,1,1*%
%TO.N,/KA8*%
X50540000Y-101920000D03*
%TO.P,SW30,2,2*%
%TO.N,/KD0*%
X44190000Y-104460000D03*
%TD*%
%TO.P,SW38,1,1*%
%TO.N,/KA15*%
X202540000Y-101920000D03*
%TO.P,SW38,2,2*%
%TO.N,/KD1*%
X196190000Y-104460000D03*
%TD*%
%TO.P,SW4,1,1*%
%TO.N,/KA11*%
X118540000Y-44920000D03*
%TO.P,SW4,2,2*%
%TO.N,/KD4*%
X112190000Y-47460000D03*
%TD*%
D11*
%TO.P,J1,1,Pin_1*%
%TO.N,/KD4*%
X189925000Y-36000000D03*
D12*
%TO.P,J1,2,Pin_2*%
%TO.N,/KD3*%
X192465000Y-36000000D03*
%TO.P,J1,3,Pin_3*%
%TO.N,/KD2*%
X195005000Y-36000000D03*
%TO.P,J1,4,Pin_4*%
%TO.N,/KD1*%
X197545000Y-36000000D03*
%TO.P,J1,5,Pin_5*%
%TO.N,/KD0*%
X200085000Y-36000000D03*
%TD*%
D10*
%TO.P,SW15,1,1*%
%TO.N,/KA13*%
X146540000Y-63920000D03*
%TO.P,SW15,2,2*%
%TO.N,/KD4*%
X140190000Y-66460000D03*
%TD*%
%TO.P,SW14,1,1*%
%TO.N,/KA10*%
X127540000Y-63920000D03*
%TO.P,SW14,2,2*%
%TO.N,/KD4*%
X121190000Y-66460000D03*
%TD*%
%TO.P,SW1,1,1*%
%TO.N,/KA11*%
X61540000Y-44920000D03*
%TO.P,SW1,2,2*%
%TO.N,/KD1*%
X55190000Y-47460000D03*
%TD*%
%TO.P,SW13,1,1*%
%TO.N,/KA10*%
X108540000Y-63920000D03*
%TO.P,SW13,2,2*%
%TO.N,/KD3*%
X102190000Y-66460000D03*
%TD*%
%TO.P,SW32,1,1*%
%TO.N,/KA8*%
X88540000Y-101920000D03*
%TO.P,SW32,2,2*%
%TO.N,/KD2*%
X82190000Y-104460000D03*
%TD*%
%TO.P,SW33,1,1*%
%TO.N,/KA8*%
X107540000Y-101920000D03*
%TO.P,SW33,2,2*%
%TO.N,/KD3*%
X101190000Y-104460000D03*
%TD*%
%TO.P,SW17,1,1*%
%TO.N,/KA13*%
X184540000Y-63920000D03*
%TO.P,SW17,2,2*%
%TO.N,/KD2*%
X178190000Y-66460000D03*
%TD*%
%TO.P,SW0,1,1*%
%TO.N,/KA11*%
X42540000Y-44920000D03*
%TO.P,SW0,2,2*%
%TO.N,/KD0*%
X36190000Y-47460000D03*
%TD*%
%TO.P,SW39,1,1*%
%TO.N,/KA15*%
X221540000Y-101920000D03*
%TO.P,SW39,2,2*%
%TO.N,/KD0*%
X215190000Y-104460000D03*
%TD*%
%TO.P,SW21,1,1*%
%TO.N,/KA9*%
X79540000Y-82920000D03*
%TO.P,SW21,2,2*%
%TO.N,/KD1*%
X73190000Y-85460000D03*
%TD*%
%TO.P,SW29,1,1*%
%TO.N,/KA14*%
X231540000Y-82920000D03*
%TO.P,SW29,2,2*%
%TO.N,/KD0*%
X225190000Y-85460000D03*
%TD*%
%TO.P,SW23,1,1*%
%TO.N,/KA9*%
X117540000Y-82920000D03*
%TO.P,SW23,2,2*%
%TO.N,/KD3*%
X111190000Y-85460000D03*
%TD*%
%TO.P,SW34,1,1*%
%TO.N,/KA8*%
X126540000Y-101920000D03*
%TO.P,SW34,2,2*%
%TO.N,/KD4*%
X120190000Y-104460000D03*
%TD*%
%TO.P,SW19,1,1*%
%TO.N,/KA13*%
X222540000Y-63920000D03*
%TO.P,SW19,2,2*%
%TO.N,/KD0*%
X216190000Y-66460000D03*
%TD*%
%TO.P,SW2,1,1*%
%TO.N,/KA11*%
X80540000Y-44920000D03*
%TO.P,SW2,2,2*%
%TO.N,/KD2*%
X74190000Y-47460000D03*
%TD*%
%TO.P,SW5,1,1*%
%TO.N,/KA12*%
X137540000Y-44920000D03*
%TO.P,SW5,2,2*%
%TO.N,/KD4*%
X131190000Y-47460000D03*
%TD*%
%TO.P,SW6,1,1*%
%TO.N,/KA12*%
X156540000Y-44920000D03*
%TO.P,SW6,2,2*%
%TO.N,/KD3*%
X150190000Y-47460000D03*
%TD*%
%TO.P,SW37,1,1*%
%TO.N,/KA15*%
X183540000Y-101920000D03*
%TO.P,SW37,2,2*%
%TO.N,/KD2*%
X177190000Y-104460000D03*
%TD*%
%TO.P,SW16,1,1*%
%TO.N,/KA13*%
X165540000Y-63920000D03*
%TO.P,SW16,2,2*%
%TO.N,/KD3*%
X159190000Y-66460000D03*
%TD*%
%TO.P,SW27,1,1*%
%TO.N,/KA14*%
X193540000Y-82920000D03*
%TO.P,SW27,2,2*%
%TO.N,/KD2*%
X187190000Y-85460000D03*
%TD*%
%TO.P,SW20,1,1*%
%TO.N,/KA9*%
X60540000Y-82920000D03*
%TO.P,SW20,2,2*%
%TO.N,/KD0*%
X54190000Y-85460000D03*
%TD*%
%TO.P,SW3,1,1*%
%TO.N,/KA11*%
X99540000Y-44920000D03*
%TO.P,SW3,2,2*%
%TO.N,/KD3*%
X93190000Y-47460000D03*
%TD*%
%TO.P,SW35,1,1*%
%TO.N,/KA15*%
X145540000Y-101920000D03*
%TO.P,SW35,2,2*%
%TO.N,/KD4*%
X139190000Y-104460000D03*
%TD*%
%TO.P,SW7,1,1*%
%TO.N,/KA12*%
X175540000Y-44920000D03*
%TO.P,SW7,2,2*%
%TO.N,/KD2*%
X169190000Y-47460000D03*
%TD*%
%TO.P,SW9,1,1*%
%TO.N,/KA12*%
X213540000Y-44920000D03*
%TO.P,SW9,2,2*%
%TO.N,/KD0*%
X207190000Y-47460000D03*
%TD*%
%TO.P,SW10,1,1*%
%TO.N,/KA10*%
X51540000Y-63920000D03*
%TO.P,SW10,2,2*%
%TO.N,/KD0*%
X45190000Y-66460000D03*
%TD*%
D13*
%TO.N,/KD4*%
X120190000Y-104460000D02*
X120540000Y-104460000D01*
X138730000Y-104000000D02*
X139190000Y-104460000D01*
X120540000Y-104460000D02*
X121000000Y-104000000D01*
X121000000Y-104000000D02*
X138730000Y-104000000D01*
%TO.N,/KD3*%
X101190000Y-105190000D02*
X102000000Y-106000000D01*
X102000000Y-109000000D02*
X103000000Y-110000000D01*
X159000000Y-105270000D02*
X158190000Y-104460000D01*
X103000000Y-110000000D02*
X158000000Y-110000000D01*
X102000000Y-106000000D02*
X102000000Y-109000000D01*
X159000000Y-109000000D02*
X159000000Y-105270000D01*
X101190000Y-104460000D02*
X101190000Y-105190000D01*
X158000000Y-110000000D02*
X159000000Y-109000000D01*
%TO.N,/KD2*%
X178000000Y-110000000D02*
X178000000Y-105270000D01*
X177000000Y-111000000D02*
X178000000Y-110000000D01*
X82190000Y-105190000D02*
X83000000Y-106000000D01*
X83000000Y-110000000D02*
X84000000Y-111000000D01*
X82190000Y-104460000D02*
X82190000Y-105190000D01*
X83000000Y-106000000D02*
X83000000Y-110000000D01*
X84000000Y-111000000D02*
X177000000Y-111000000D01*
X178000000Y-105270000D02*
X177190000Y-104460000D01*
%TO.N,/KD1*%
X64000000Y-105270000D02*
X63190000Y-104460000D01*
X197000000Y-105000000D02*
X197000000Y-111000000D01*
X196460000Y-104460000D02*
X197000000Y-105000000D01*
X64000000Y-111000000D02*
X64000000Y-105270000D01*
X65000000Y-112000000D02*
X64000000Y-111000000D01*
X196000000Y-112000000D02*
X65000000Y-112000000D01*
X196190000Y-104460000D02*
X196460000Y-104460000D01*
X197000000Y-111000000D02*
X196000000Y-112000000D01*
%TO.N,/KD0*%
X216000000Y-112000000D02*
X216000000Y-105270000D01*
X44190000Y-104460000D02*
X44190000Y-105190000D01*
X46000000Y-113000000D02*
X215000000Y-113000000D01*
X44190000Y-105190000D02*
X45000000Y-106000000D01*
X45000000Y-106000000D02*
X45000000Y-112000000D01*
X45000000Y-112000000D02*
X46000000Y-113000000D01*
X215000000Y-113000000D02*
X216000000Y-112000000D01*
X216000000Y-105270000D02*
X215190000Y-104460000D01*
%TO.N,/KA11*%
X128000000Y-46000000D02*
X128000000Y-53000000D01*
X214000000Y-49000000D02*
X216000000Y-47000000D01*
X212000000Y-54000000D02*
X214000000Y-52000000D01*
X214000000Y-36125000D02*
X214125000Y-36000000D01*
X99540000Y-44920000D02*
X80540000Y-44920000D01*
X118540000Y-44920000D02*
X99540000Y-44920000D01*
X128000000Y-53000000D02*
X129000000Y-54000000D01*
X80540000Y-44920000D02*
X61540000Y-44920000D01*
X216000000Y-42000000D02*
X214000000Y-40000000D01*
X118540000Y-44920000D02*
X126920000Y-44920000D01*
X216000000Y-47000000D02*
X216000000Y-42000000D01*
X126920000Y-44920000D02*
X128000000Y-46000000D01*
X214000000Y-40000000D02*
X214000000Y-36125000D01*
X61540000Y-44920000D02*
X42540000Y-44920000D01*
X129000000Y-54000000D02*
X212000000Y-54000000D01*
X214000000Y-52000000D02*
X214000000Y-49000000D01*
%TO.N,/KA10*%
X128000000Y-56000000D02*
X129000000Y-55000000D01*
X218000000Y-41500000D02*
X217000000Y-40500000D01*
X218000000Y-53000000D02*
X218000000Y-41500000D01*
X127540000Y-63920000D02*
X108540000Y-63920000D01*
X108540000Y-63920000D02*
X89540000Y-63920000D01*
X217000000Y-40500000D02*
X217000000Y-36335000D01*
X128000000Y-63460000D02*
X128000000Y-56000000D01*
X89540000Y-63920000D02*
X70540000Y-63920000D01*
X217000000Y-36335000D02*
X216665000Y-36000000D01*
X216000000Y-55000000D02*
X218000000Y-53000000D01*
X129000000Y-55000000D02*
X216000000Y-55000000D01*
X127540000Y-63920000D02*
X128000000Y-63460000D01*
X70540000Y-63920000D02*
X51540000Y-63920000D01*
%TO.N,/KA12*%
X156540000Y-44920000D02*
X137540000Y-44920000D01*
X213540000Y-44920000D02*
X194540000Y-44920000D01*
X175540000Y-44920000D02*
X156540000Y-44920000D01*
X194540000Y-44920000D02*
X175540000Y-44920000D01*
%TO.N,/KA9*%
X135000000Y-76000000D02*
X135000000Y-58000000D01*
X136540000Y-82920000D02*
X136540000Y-77540000D01*
X221000000Y-56000000D02*
X222000000Y-55000000D01*
X60540000Y-82920000D02*
X79540000Y-82920000D01*
X98540000Y-82920000D02*
X117540000Y-82920000D01*
X79540000Y-82920000D02*
X98540000Y-82920000D01*
X117540000Y-82920000D02*
X136540000Y-82920000D01*
X222000000Y-55000000D02*
X222000000Y-36255000D01*
X135000000Y-58000000D02*
X137000000Y-56000000D01*
X136540000Y-77540000D02*
X135000000Y-76000000D01*
X137000000Y-56000000D02*
X221000000Y-56000000D01*
X222000000Y-36255000D02*
X221745000Y-36000000D01*
%TO.N,/KA13*%
X165540000Y-63920000D02*
X184540000Y-63920000D01*
X203540000Y-63920000D02*
X222540000Y-63920000D01*
X146540000Y-63920000D02*
X165540000Y-63920000D01*
X184540000Y-63920000D02*
X203540000Y-63920000D01*
%TO.N,/KA8*%
X69540000Y-101920000D02*
X50540000Y-101920000D01*
X227000000Y-55000000D02*
X227000000Y-36175000D01*
X135080000Y-101920000D02*
X137000000Y-100000000D01*
X225000000Y-57000000D02*
X227000000Y-55000000D01*
X137000000Y-59000000D02*
X139000000Y-57000000D01*
X139000000Y-84000000D02*
X139000000Y-77000000D01*
X139000000Y-77000000D02*
X137000000Y-75000000D01*
X137000000Y-75000000D02*
X137000000Y-59000000D01*
X107540000Y-101920000D02*
X88540000Y-101920000D01*
X137000000Y-100000000D02*
X137000000Y-86000000D01*
X227000000Y-36175000D02*
X226825000Y-36000000D01*
X69540000Y-101920000D02*
X88540000Y-101920000D01*
X139000000Y-57000000D02*
X225000000Y-57000000D01*
X137000000Y-86000000D02*
X139000000Y-84000000D01*
X126540000Y-101920000D02*
X107540000Y-101920000D01*
X126540000Y-101920000D02*
X135080000Y-101920000D01*
%TO.N,/KA14*%
X231540000Y-82920000D02*
X212540000Y-82920000D01*
X229500000Y-36135000D02*
X229365000Y-36000000D01*
X193540000Y-82920000D02*
X174540000Y-82920000D01*
X231540000Y-82920000D02*
X231540000Y-82460000D01*
X231540000Y-82460000D02*
X232000000Y-82000000D01*
X174540000Y-82920000D02*
X155540000Y-82920000D01*
X232000000Y-77000000D02*
X229500000Y-74500000D01*
X232000000Y-82000000D02*
X232000000Y-77000000D01*
X229500000Y-74500000D02*
X229500000Y-36135000D01*
X212540000Y-82920000D02*
X193540000Y-82920000D01*
%TO.N,/KA15*%
X234000000Y-84000000D02*
X234000000Y-75000000D01*
X183540000Y-101920000D02*
X202540000Y-101920000D01*
X232000000Y-91460000D02*
X232000000Y-86000000D01*
X234000000Y-75000000D02*
X232000000Y-73000000D01*
X232000000Y-73000000D02*
X232000000Y-36095000D01*
X232000000Y-36095000D02*
X231905000Y-36000000D01*
X202540000Y-101920000D02*
X221540000Y-101920000D01*
X232000000Y-86000000D02*
X234000000Y-84000000D01*
X145540000Y-101920000D02*
X164540000Y-101920000D01*
X221540000Y-101920000D02*
X232000000Y-91460000D01*
X164540000Y-101920000D02*
X183540000Y-101920000D01*
%TD*%
M02*
