%TF.GenerationSoftware,KiCad,Pcbnew,6.0.6-3a73a75311~116~ubuntu20.04.1*%
%TF.CreationDate,2022-07-11T16:37:52-07:00*%
%TF.ProjectId,zx81-kbd,7a783831-2d6b-4626-942e-6b696361645f,rev?*%
%TF.SameCoordinates,Original*%
%TF.FileFunction,Soldermask,Top*%
%TF.FilePolarity,Negative*%
%FSLAX46Y46*%
G04 Gerber Fmt 4.6, Leading zero omitted, Abs format (unit mm)*
G04 Created by KiCad (PCBNEW 6.0.6-3a73a75311~116~ubuntu20.04.1) date 2022-07-11 16:37:52*
%MOMM*%
%LPD*%
G01*
G04 APERTURE LIST*
%ADD10C,1.700000*%
%ADD11C,4.000000*%
%ADD12C,2.200000*%
%ADD13C,3.200000*%
%ADD14R,1.700000X1.700000*%
%ADD15O,1.700000X1.700000*%
G04 APERTURE END LIST*
D10*
%TO.C,SW8*%
X197080000Y-50000000D03*
D11*
X192000000Y-50000000D03*
D10*
X186920000Y-50000000D03*
D12*
X194540000Y-44920000D03*
X188190000Y-47460000D03*
%TD*%
D10*
%TO.C,SW12*%
X81920000Y-69000000D03*
X92080000Y-69000000D03*
D11*
X87000000Y-69000000D03*
D12*
X89540000Y-63920000D03*
X83190000Y-66460000D03*
%TD*%
D11*
%TO.C,SW36*%
X162000000Y-107000000D03*
D10*
X167080000Y-107000000D03*
X156920000Y-107000000D03*
D12*
X164540000Y-101920000D03*
X158190000Y-104460000D03*
%TD*%
D10*
%TO.C,SW22*%
X90920000Y-88000000D03*
X101080000Y-88000000D03*
D11*
X96000000Y-88000000D03*
D12*
X98540000Y-82920000D03*
X92190000Y-85460000D03*
%TD*%
D10*
%TO.C,SW24*%
X128920000Y-88000000D03*
D11*
X134000000Y-88000000D03*
D10*
X139080000Y-88000000D03*
D12*
X136540000Y-82920000D03*
X130190000Y-85460000D03*
%TD*%
D10*
%TO.C,SW18*%
X206080000Y-69000000D03*
D11*
X201000000Y-69000000D03*
D10*
X195920000Y-69000000D03*
D12*
X203540000Y-63920000D03*
X197190000Y-66460000D03*
%TD*%
D13*
%TO.C,H4*%
X238000000Y-116000000D03*
%TD*%
D11*
%TO.C,SW31*%
X67000000Y-107000000D03*
D10*
X61920000Y-107000000D03*
X72080000Y-107000000D03*
D12*
X69540000Y-101920000D03*
X63190000Y-104460000D03*
%TD*%
D10*
%TO.C,SW26*%
X177080000Y-88000000D03*
D11*
X172000000Y-88000000D03*
D10*
X166920000Y-88000000D03*
D12*
X174540000Y-82920000D03*
X168190000Y-85460000D03*
%TD*%
D10*
%TO.C,SW28*%
X215080000Y-88000000D03*
X204920000Y-88000000D03*
D11*
X210000000Y-88000000D03*
D12*
X212540000Y-82920000D03*
X206190000Y-85460000D03*
%TD*%
D13*
%TO.C,H1*%
X32000000Y-38000000D03*
%TD*%
D14*
%TO.C,J2*%
X214125000Y-36000000D03*
D15*
X216665000Y-36000000D03*
X219205000Y-36000000D03*
X221745000Y-36000000D03*
X224285000Y-36000000D03*
X226825000Y-36000000D03*
X229365000Y-36000000D03*
X231905000Y-36000000D03*
%TD*%
D11*
%TO.C,SW11*%
X68000000Y-69000000D03*
D10*
X73080000Y-69000000D03*
X62920000Y-69000000D03*
D12*
X70540000Y-63920000D03*
X64190000Y-66460000D03*
%TD*%
D10*
%TO.C,SW25*%
X158080000Y-88000000D03*
X147920000Y-88000000D03*
D11*
X153000000Y-88000000D03*
D12*
X155540000Y-82920000D03*
X149190000Y-85460000D03*
%TD*%
D10*
%TO.C,SW30*%
X53080000Y-107000000D03*
D11*
X48000000Y-107000000D03*
D10*
X42920000Y-107000000D03*
D12*
X50540000Y-101920000D03*
X44190000Y-104460000D03*
%TD*%
D10*
%TO.C,SW38*%
X205080000Y-107000000D03*
D11*
X200000000Y-107000000D03*
D10*
X194920000Y-107000000D03*
D12*
X202540000Y-101920000D03*
X196190000Y-104460000D03*
%TD*%
D10*
%TO.C,SW4*%
X110920000Y-50000000D03*
X121080000Y-50000000D03*
D11*
X116000000Y-50000000D03*
D12*
X118540000Y-44920000D03*
X112190000Y-47460000D03*
%TD*%
D14*
%TO.C,J1*%
X189925000Y-36000000D03*
D15*
X192465000Y-36000000D03*
X195005000Y-36000000D03*
X197545000Y-36000000D03*
X200085000Y-36000000D03*
%TD*%
D11*
%TO.C,SW15*%
X144000000Y-69000000D03*
D10*
X149080000Y-69000000D03*
X138920000Y-69000000D03*
D12*
X146540000Y-63920000D03*
X140190000Y-66460000D03*
%TD*%
D10*
%TO.C,SW14*%
X130080000Y-69000000D03*
D11*
X125000000Y-69000000D03*
D10*
X119920000Y-69000000D03*
D12*
X127540000Y-63920000D03*
X121190000Y-66460000D03*
%TD*%
D10*
%TO.C,SW1*%
X64080000Y-50000000D03*
X53920000Y-50000000D03*
D11*
X59000000Y-50000000D03*
D12*
X61540000Y-44920000D03*
X55190000Y-47460000D03*
%TD*%
D11*
%TO.C,SW13*%
X106000000Y-69000000D03*
D10*
X100920000Y-69000000D03*
X111080000Y-69000000D03*
D12*
X108540000Y-63920000D03*
X102190000Y-66460000D03*
%TD*%
D11*
%TO.C,SW32*%
X86000000Y-107000000D03*
D10*
X80920000Y-107000000D03*
X91080000Y-107000000D03*
D12*
X88540000Y-101920000D03*
X82190000Y-104460000D03*
%TD*%
D10*
%TO.C,SW33*%
X99920000Y-107000000D03*
D11*
X105000000Y-107000000D03*
D10*
X110080000Y-107000000D03*
D12*
X107540000Y-101920000D03*
X101190000Y-104460000D03*
%TD*%
D11*
%TO.C,SW17*%
X182000000Y-69000000D03*
D10*
X187080000Y-69000000D03*
X176920000Y-69000000D03*
D12*
X184540000Y-63920000D03*
X178190000Y-66460000D03*
%TD*%
D10*
%TO.C,SW0*%
X45080000Y-50000000D03*
D11*
X40000000Y-50000000D03*
D10*
X34920000Y-50000000D03*
D12*
X42540000Y-44920000D03*
X36190000Y-47460000D03*
%TD*%
D10*
%TO.C,SW39*%
X224080000Y-107000000D03*
X213920000Y-107000000D03*
D11*
X219000000Y-107000000D03*
D12*
X221540000Y-101920000D03*
X215190000Y-104460000D03*
%TD*%
D10*
%TO.C,SW21*%
X82080000Y-88000000D03*
X71920000Y-88000000D03*
D11*
X77000000Y-88000000D03*
D12*
X79540000Y-82920000D03*
X73190000Y-85460000D03*
%TD*%
D11*
%TO.C,SW29*%
X229000000Y-88000000D03*
D10*
X234080000Y-88000000D03*
X223920000Y-88000000D03*
D12*
X231540000Y-82920000D03*
X225190000Y-85460000D03*
%TD*%
D11*
%TO.C,SW23*%
X115000000Y-88000000D03*
D10*
X120080000Y-88000000D03*
X109920000Y-88000000D03*
D12*
X117540000Y-82920000D03*
X111190000Y-85460000D03*
%TD*%
D10*
%TO.C,SW34*%
X129080000Y-107000000D03*
D11*
X124000000Y-107000000D03*
D10*
X118920000Y-107000000D03*
D12*
X126540000Y-101920000D03*
X120190000Y-104460000D03*
%TD*%
D10*
%TO.C,SW19*%
X214920000Y-69000000D03*
D11*
X220000000Y-69000000D03*
D10*
X225080000Y-69000000D03*
D12*
X222540000Y-63920000D03*
X216190000Y-66460000D03*
%TD*%
D13*
%TO.C,H2*%
X32000000Y-116000000D03*
%TD*%
D11*
%TO.C,SW2*%
X78000000Y-50000000D03*
D10*
X72920000Y-50000000D03*
X83080000Y-50000000D03*
D12*
X80540000Y-44920000D03*
X74190000Y-47460000D03*
%TD*%
D11*
%TO.C,SW5*%
X135000000Y-50000000D03*
D10*
X129920000Y-50000000D03*
X140080000Y-50000000D03*
D12*
X137540000Y-44920000D03*
X131190000Y-47460000D03*
%TD*%
D10*
%TO.C,SW6*%
X159080000Y-50000000D03*
D11*
X154000000Y-50000000D03*
D10*
X148920000Y-50000000D03*
D12*
X156540000Y-44920000D03*
X150190000Y-47460000D03*
%TD*%
D13*
%TO.C,H3*%
X238000000Y-38000000D03*
%TD*%
D10*
%TO.C,SW37*%
X186080000Y-107000000D03*
X175920000Y-107000000D03*
D11*
X181000000Y-107000000D03*
D12*
X183540000Y-101920000D03*
X177190000Y-104460000D03*
%TD*%
D11*
%TO.C,SW16*%
X163000000Y-69000000D03*
D10*
X168080000Y-69000000D03*
X157920000Y-69000000D03*
D12*
X165540000Y-63920000D03*
X159190000Y-66460000D03*
%TD*%
D11*
%TO.C,SW27*%
X191000000Y-88000000D03*
D10*
X185920000Y-88000000D03*
X196080000Y-88000000D03*
D12*
X193540000Y-82920000D03*
X187190000Y-85460000D03*
%TD*%
D10*
%TO.C,SW20*%
X63080000Y-88000000D03*
D11*
X58000000Y-88000000D03*
D10*
X52920000Y-88000000D03*
D12*
X60540000Y-82920000D03*
X54190000Y-85460000D03*
%TD*%
D11*
%TO.C,SW3*%
X97000000Y-50000000D03*
D10*
X102080000Y-50000000D03*
X91920000Y-50000000D03*
D12*
X99540000Y-44920000D03*
X93190000Y-47460000D03*
%TD*%
D10*
%TO.C,SW35*%
X148080000Y-107000000D03*
X137920000Y-107000000D03*
D11*
X143000000Y-107000000D03*
D12*
X145540000Y-101920000D03*
X139190000Y-104460000D03*
%TD*%
D10*
%TO.C,SW7*%
X167920000Y-50000000D03*
D11*
X173000000Y-50000000D03*
D10*
X178080000Y-50000000D03*
D12*
X175540000Y-44920000D03*
X169190000Y-47460000D03*
%TD*%
D11*
%TO.C,SW9*%
X211000000Y-50000000D03*
D10*
X205920000Y-50000000D03*
X216080000Y-50000000D03*
D12*
X213540000Y-44920000D03*
X207190000Y-47460000D03*
%TD*%
D11*
%TO.C,SW10*%
X49000000Y-69000000D03*
D10*
X54080000Y-69000000D03*
X43920000Y-69000000D03*
D12*
X51540000Y-63920000D03*
X45190000Y-66460000D03*
%TD*%
M02*
